<?xml version="1.0" standalone="no"?>
<!DOCTYPE svg PUBLIC "-//W3C//DTD SVG 20010904//EN"
 "http://www.w3.org/TR/2001/REC-SVG-20010904/DTD/svg10.dtd">
<svg version="1.0" xmlns="http://www.w3.org/2000/svg"
 width="1000.000000pt" height="1000.000000pt" viewBox="0 0 1000.000000 1000.000000"
 preserveAspectRatio="xMidYMid meet">
<metadata>
Created by potrace 1.14, written by Peter Selinger 2001-2017
</metadata>
<g transform="translate(0.000000,1000.000000) scale(0.100000,-0.100000)"
fill="#000000" stroke="none">
<path d="M1045 9880 c-13 -14 -13 -19 -3 -23 8 -4 7 -6 -4 -6 -10 -1 -18 -8
-18 -16 0 -8 -5 -15 -11 -15 -5 0 -7 -4 -4 -10 3 -5 1 -10 -5 -10 -6 0 -8 -5
-4 -12 5 -7 2 -9 -7 -6 -14 5 -17 -2 -21 -49 -1 -7 -8 -13 -17 -13 -13 0 -13
-2 -3 -9 11 -6 10 -10 -3 -15 -11 -4 -15 -12 -11 -22 4 -11 2 -15 -8 -11 -10
4 -13 1 -10 -7 3 -7 -2 -20 -10 -29 -12 -12 -13 -17 -3 -20 9 -4 9 -6 -1 -6
-7 -1 -10 -5 -7 -11 3 -5 2 -10 -4 -10 -6 0 -7 -8 -4 -17 5 -12 2 -15 -9 -11
-8 4 -15 1 -15 -8 0 -7 5 -10 11 -7 6 4 2 -4 -9 -17 -12 -14 -14 -20 -5 -15
13 7 13 6 2 -7 -7 -9 -12 -20 -10 -24 1 -5 -3 -19 -10 -31 -7 -13 -9 -23 -5
-23 4 0 2 -4 -6 -9 -18 -11 -25 -44 -8 -34 8 5 8 2 0 -9 -7 -8 -10 -18 -6 -21
3 -4 0 -7 -8 -7 -11 0 -11 -2 1 -10 9 -6 11 -10 3 -10 -7 0 -10 -7 -6 -17 5
-11 3 -14 -6 -8 -11 6 -11 3 0 -16 11 -21 10 -22 -2 -12 -13 10 -15 5 -13 -32
1 -31 -2 -43 -10 -38 -6 3 -8 3 -4 -2 4 -4 3 -14 -4 -22 -8 -10 -8 -12 4 -8 9
4 15 0 15 -9 0 -8 -6 -12 -13 -9 -9 3 -11 -2 -7 -17 4 -13 0 -26 -8 -31 -12
-7 -12 -9 1 -9 13 0 13 -1 0 -10 -13 -9 -13 -10 0 -10 12 -1 11 -3 -3 -11 -14
-8 -16 -14 -6 -25 9 -11 8 -14 -2 -14 -11 0 -11 -2 1 -10 10 -6 11 -10 3 -10
-7 0 -13 -5 -13 -11 0 -5 4 -8 8 -5 4 2 8 -4 8 -14 0 -10 -3 -17 -7 -14 -4 2
-13 -4 -20 -13 -8 -9 -9 -14 -3 -10 7 4 17 0 24 -8 11 -13 10 -14 -2 -10 -9 4
-18 -1 -22 -10 -3 -9 -2 -13 4 -10 6 3 10 1 10 -4 0 -6 -3 -11 -7 -11 -5 0 -7
-17 -7 -37 1 -21 -2 -46 -7 -55 -6 -11 -5 -19 2 -24 8 -4 7 -9 -2 -15 -12 -8
-11 -11 1 -19 10 -6 11 -10 3 -10 -7 0 -13 -5 -13 -11 0 -5 6 -7 13 -3 9 6 9
4 -1 -8 -10 -13 -10 -17 0 -21 10 -4 10 -6 1 -6 -7 -1 -13 -13 -13 -27 0 -17
-4 -23 -12 -18 -9 5 -9 2 1 -9 10 -13 11 -20 2 -31 -7 -9 -8 -17 -2 -20 5 -3
12 -1 14 4 3 6 4 5 3 -2 -2 -7 -9 -12 -15 -11 -6 2 -11 -2 -11 -7 0 -6 -5 -10
-11 -10 -8 0 -8 5 1 15 10 11 10 15 0 15 -6 0 -10 6 -7 13 2 6 11 11 18 9 9
-1 8 2 -3 11 -9 7 -17 22 -16 33 0 10 -3 28 -7 38 -6 14 -5 17 3 12 17 -10 15
0 -4 18 -12 12 -12 16 -2 16 10 0 9 3 -2 10 -13 9 -13 10 0 11 10 0 8 3 -5 9
-19 8 -19 9 -1 9 20 1 20 1 0 16 -14 11 -15 14 -4 15 13 0 13 1 0 10 -12 8
-12 10 -1 10 11 0 11 3 0 16 -17 20 -20 42 -7 50 5 3 2 14 -8 25 -17 19 -17
20 1 13 17 -7 18 -6 5 8 -8 9 -17 14 -20 13 -8 -5 -5 39 4 53 4 7 2 12 -3 12
-6 0 -10 3 -10 8 1 4 1 27 0 52 -1 35 -4 42 -12 30 -9 -12 -10 -10 -6 8 4 18
2 21 -7 13 -9 -7 -17 -7 -26 2 -8 6 -7 3 3 -9 18 -22 23 -39 9 -30 -5 3 -8 -7
-7 -22 1 -15 -3 -30 -9 -34 -7 -5 -6 -8 4 -8 13 0 13 -1 0 -10 -11 -7 -11 -10
-2 -10 7 0 10 -5 7 -10 -4 -6 -10 -8 -14 -6 -4 3 -8 -4 -8 -15 -1 -12 2 -17
10 -12 7 3 3 -4 -8 -17 -11 -13 -14 -20 -7 -16 14 9 17 -10 2 -19 -6 -4 -8
-10 -5 -15 3 -5 1 -19 -6 -31 -6 -12 -7 -19 -1 -15 6 3 9 -5 8 -19 0 -16 -6
-23 -14 -20 -7 3 -6 -6 5 -23 17 -26 17 -27 -1 -12 -18 14 -19 14 -8 -7 8 -15
9 -24 2 -28 -8 -5 -7 -12 2 -23 8 -9 8 -13 2 -9 -7 4 -15 0 -18 -9 -3 -8 -2
-13 3 -10 4 3 8 -8 7 -24 -1 -17 -5 -30 -11 -30 -5 0 -3 -5 5 -10 13 -9 13
-10 0 -10 -13 0 -13 -1 0 -10 13 -9 13 -10 0 -10 -13 0 -13 -1 0 -10 8 -5 10
-10 4 -10 -8 0 -9 -11 -4 -35 5 -24 4 -35 -4 -35 -6 0 -4 -5 4 -10 8 -5 10
-10 4 -10 -6 0 -8 -19 -4 -55 3 -30 3 -61 -1 -67 -5 -7 -1 -20 8 -30 9 -10 13
-18 9 -18 -4 0 -2 -10 5 -21 7 -13 7 -19 1 -15 -6 3 -13 2 -17 -4 -3 -5 0 -10
7 -10 9 0 9 -3 -2 -10 -12 -8 -12 -10 5 -10 17 0 17 -2 5 -10 -8 -5 -10 -10
-5 -10 6 0 11 -9 12 -20 1 -14 -2 -18 -10 -13 -7 4 -4 -5 6 -20 9 -15 14 -27
9 -27 -5 0 -9 -7 -9 -15 0 -8 4 -15 9 -15 5 0 7 -4 4 -9 -4 -5 -2 -21 4 -36 8
-20 7 -25 -3 -20 -6 4 -4 0 5 -7 15 -13 15 -15 -3 -26 -10 -7 -19 -9 -18 -5 4
23 -2 43 -11 38 -9 -6 -14 8 -11 28 0 4 -4 7 -11 7 -6 0 -9 3 -5 6 3 3 -5 16
-17 28 -13 11 -21 27 -19 34 3 6 0 12 -7 12 -6 0 -9 3 -7 8 6 8 -19 33 -26 26
-2 -3 -3 6 -2 20 2 18 -1 23 -11 19 -9 -3 -14 0 -12 8 2 8 -2 13 -8 12 -6 -1
-10 9 -8 23 1 13 -2 22 -6 19 -11 -7 -32 30 -23 39 3 3 1 6 -6 6 -7 0 -9 5 -5
12 5 7 2 9 -9 5 -12 -4 -15 -1 -12 14 3 17 1 18 -17 8 -15 -8 -17 -13 -8 -19
10 -6 9 -9 -1 -13 -10 -4 -10 -6 -2 -6 9 -1 10 -8 3 -27 -7 -16 -7 -23 0 -19
6 3 10 1 10 -4 0 -6 -4 -11 -9 -11 -5 0 -5 -15 -1 -35 5 -24 4 -35 -4 -35 -6
0 -4 -5 4 -10 11 -7 11 -10 2 -10 -7 0 -10 -5 -6 -11 3 -6 6 -53 6 -105 0 -67
4 -92 12 -87 6 3 6 0 -2 -8 -15 -16 -16 -43 -1 -33 8 4 8 0 0 -15 -9 -16 -9
-21 1 -21 8 -1 5 -7 -6 -15 -12 -9 -14 -15 -7 -15 9 0 11 -12 7 -42 -4 -28 -3
-38 3 -28 6 8 7 18 4 24 -3 5 -1 6 4 3 7 -5 8 -20 3 -42 -6 -26 -4 -39 6 -49
11 -11 11 -15 1 -19 -9 -4 -9 -7 0 -18 9 -9 10 -16 2 -26 -9 -10 -8 -13 2 -13
11 0 11 -2 -1 -10 -12 -8 -12 -10 -1 -10 8 0 11 -3 8 -7 -4 -3 -2 -12 4 -20 6
-7 8 -13 4 -13 -4 0 -1 -8 6 -17 13 -16 12 -17 -3 -5 -14 11 -16 11 -11 -7 3
-12 10 -21 17 -21 6 0 4 -5 -4 -10 -8 -5 -10 -10 -4 -10 6 0 10 -19 10 -44 -1
-34 2 -42 13 -38 10 4 12 1 6 -9 -15 -23 -13 -49 4 -49 14 0 14 -2 1 -10 -9
-6 -10 -10 -3 -10 8 0 11 -13 9 -35 -2 -25 1 -34 10 -31 8 3 11 -6 9 -29 -1
-19 1 -32 6 -30 4 3 10 -2 13 -11 4 -10 2 -13 -7 -8 -9 6 -9 5 0 -8 7 -8 10
-18 6 -21 -3 -4 -1 -7 5 -7 7 0 12 -5 12 -11 0 -5 -6 -7 -12 -3 -9 5 -9 2 1
-9 11 -14 11 -20 0 -34 -11 -15 -11 -16 1 -5 20 18 25 15 27 -15 1 -19 -1 -22
-8 -12 -5 8 -9 10 -9 5 0 -6 -6 -4 -12 2 -7 7 -13 18 -13 25 0 7 -7 12 -15 12
-8 0 -15 5 -15 11 0 6 -8 19 -18 29 -10 9 -16 24 -13 31 4 9 -2 14 -17 14 -18
0 -19 2 -7 10 13 9 13 10 0 11 -8 1 -18 1 -22 0 -5 0 -8 10 -8 24 0 23 -10 30
-34 26 -5 -1 -6 5 -3 13 3 8 -1 17 -9 20 -8 3 -14 13 -14 23 0 15 -2 16 -10 3
-8 -13 -10 -12 -10 3 0 21 -24 49 -34 39 -4 -3 -4 1 0 11 3 10 1 17 -6 17 -6
0 -8 5 -4 13 5 8 2 7 -9 -2 -15 -12 -17 -12 -11 4 5 13 4 16 -4 11 -7 -4 -12
-30 -12 -59 0 -34 3 -47 9 -38 7 10 9 7 8 -12 -1 -14 -5 -23 -9 -20 -5 2 -8
-1 -8 -6 0 -6 8 -11 17 -11 15 0 14 -2 -3 -14 -17 -13 -17 -15 -3 -21 11 -4
14 -14 11 -32 -4 -20 -2 -24 9 -18 12 8 12 6 0 -8 -11 -14 -11 -17 0 -17 12 0
12 -2 0 -9 -8 -6 -9 -10 -2 -12 6 -2 12 -21 13 -41 2 -21 6 -38 9 -38 3 0 5
-10 4 -22 -3 -29 5 -49 15 -43 10 6 8 -15 -3 -32 -5 -8 -3 -13 4 -13 6 0 9 -8
6 -20 -3 -11 -2 -18 3 -15 4 3 11 -2 14 -11 4 -10 2 -13 -7 -8 -8 6 -8 3 1 -9
8 -9 11 -20 8 -26 -3 -5 2 -12 11 -15 15 -6 15 -8 3 -16 -10 -7 -11 -10 -2
-10 6 0 12 -7 12 -15 0 -8 6 -15 13 -15 8 0 7 -4 -3 -10 -11 -7 -11 -10 -2
-10 7 0 10 -4 7 -10 -3 -5 -1 -10 5 -10 6 0 8 -4 5 -10 -3 -5 -1 -10 6 -10 9
0 9 -3 0 -14 -9 -11 -8 -17 9 -29 11 -7 21 -26 22 -41 2 -16 7 -25 15 -22 7 3
10 -1 7 -9 -3 -8 1 -22 10 -31 9 -8 14 -20 11 -25 -4 -5 -1 -9 5 -9 6 0 8 -4
5 -10 -3 -5 -1 -10 5 -10 7 0 10 -7 7 -15 -4 -8 -1 -17 5 -21 7 -5 8 -2 3 6
-5 8 -4 11 3 6 6 -4 9 -13 5 -21 -3 -8 -1 -15 4 -15 4 0 14 -9 21 -21 11 -17
11 -20 0 -13 -10 6 -10 4 1 -9 7 -9 18 -14 25 -10 6 4 4 -2 -4 -12 -8 -10 -10
-16 -3 -12 13 8 37 -26 26 -37 -3 -3 1 -6 11 -6 9 0 15 -4 11 -9 -3 -5 0 -13
6 -17 8 -5 8 -9 -2 -14 -16 -11 -41 -1 -32 13 4 6 1 7 -6 3 -7 -5 -19 0 -27
10 -9 11 -12 12 -8 4 7 -13 5 -13 -9 -2 -9 8 -21 11 -27 7 -5 -3 -10 1 -10 9
0 9 -3 15 -8 15 -19 -3 -33 2 -28 10 7 11 -13 9 -31 -2 -9 -6 -11 -3 -6 9 4
12 3 15 -5 10 -7 -4 -12 -3 -12 2 0 9 -37 23 -57 22 -13 0 -10 -24 4 -38 7 -8
11 -18 8 -23 -4 -5 -1 -9 5 -9 7 0 9 -9 5 -22 -7 -22 -7 -23 8 -3 14 19 15 18
10 -9 -4 -19 -2 -27 4 -23 6 4 10 1 10 -6 -2 -21 35 -97 44 -91 5 3 9 -4 9
-16 0 -11 7 -23 15 -26 8 -4 12 -10 9 -15 -3 -5 2 -9 10 -9 9 0 15 -3 15 -7
-4 -24 3 -35 17 -29 8 3 12 2 9 -4 -3 -6 1 -13 10 -16 13 -5 13 -9 3 -22 -10
-12 -10 -14 0 -8 7 4 12 2 12 -4 0 -6 4 -8 10 -5 5 3 10 1 10 -5 0 -15 25 -40
40 -40 7 0 9 -7 6 -16 -3 -8 -2 -12 4 -9 6 3 10 0 10 -7 0 -9 3 -9 10 2 8 12
10 11 10 -7 0 -13 8 -24 20 -28 11 -3 20 -11 20 -17 0 -5 7 -8 15 -4 8 3 14 0
12 -7 -1 -7 4 -11 11 -9 8 1 11 -2 7 -8 -3 -5 -1 -10 5 -10 6 0 8 -4 5 -10 -3
-5 3 -10 15 -10 12 0 19 -4 16 -9 -7 -11 22 -23 37 -14 6 4 8 0 4 -10 -6 -15
3 -22 26 -18 4 0 7 -6 7 -15 0 -8 5 -12 10 -9 6 3 10 2 10 -3 0 -5 12 -18 28
-28 26 -17 27 -17 12 2 -14 19 -14 19 7 0 13 -10 20 -23 17 -27 -3 -5 -1 -9 5
-9 5 0 12 6 15 13 3 6 5 3 3 -8 -2 -18 -10 -20 -65 -20 -35 -1 -66 3 -69 8 -2
4 -11 3 -19 -4 -11 -9 -17 -9 -28 0 -9 7 -17 8 -20 2 -3 -5 -16 -7 -28 -3 -16
4 -19 2 -13 -8 6 -10 4 -11 -6 -4 -18 12 -69 13 -69 2 0 -5 -4 -7 -9 -4 -5 4
-7 -3 -4 -14 3 -11 11 -20 18 -20 9 0 11 -8 7 -22 -4 -15 -2 -19 8 -13 8 5 11
3 8 -6 -3 -8 2 -20 11 -27 9 -8 10 -11 3 -7 -10 5 -10 1 0 -19 6 -14 15 -26
20 -26 4 0 8 -9 8 -21 0 -11 4 -17 10 -14 5 3 10 -1 10 -9 0 -9 5 -16 12 -16
6 0 9 -3 6 -6 -3 -3 7 -19 23 -36 15 -17 25 -36 22 -41 -4 -6 0 -8 10 -4 9 3
16 3 16 -1 -3 -18 2 -32 12 -32 15 0 39 -26 32 -34 -4 -3 4 -6 16 -6 16 0 21
-5 18 -14 -4 -9 0 -13 11 -12 23 4 43 -16 28 -27 -6 -6 -4 -6 8 -3 11 4 23 0
30 -9 6 -9 21 -17 33 -18 12 0 19 -5 17 -9 -3 -4 0 -8 6 -8 6 0 18 -7 27 -16
9 -8 22 -13 29 -10 8 3 14 1 14 -4 0 -6 5 -10 11 -10 7 0 18 -8 25 -17 11 -15
13 -15 14 -3 0 9 6 6 16 -10 8 -14 13 -17 10 -7 -3 9 -1 17 4 17 6 0 10 -7 10
-16 0 -8 5 -12 10 -9 6 3 10 1 10 -6 0 -8 5 -7 17 2 11 10 14 10 9 2 -4 -8 -1
-13 9 -13 9 0 14 -4 10 -9 -3 -6 3 -8 14 -6 11 2 22 -3 25 -11 3 -9 10 -13 16
-9 5 3 23 -1 40 -10 32 -17 38 -45 10 -52 -13 -4 -13 -3 0 7 12 9 10 10 -10 8
-14 -2 -28 -7 -32 -13 -5 -6 -8 -5 -8 3 0 7 -4 11 -9 7 -5 -3 -17 2 -25 11
-15 14 -16 14 -17 -3 0 -10 -3 -13 -6 -5 -2 6 -9 12 -14 12 -6 0 -7 -6 -3 -12
4 -7 -2 -5 -13 4 -22 20 -33 23 -33 7 0 -5 5 -7 10 -4 5 3 10 1 10 -4 0 -16
-11 -13 -33 7 -11 9 -17 12 -14 5 4 -6 3 -14 -3 -18 -5 -3 -10 1 -10 10 0 13
-4 14 -20 5 -14 -7 -20 -7 -20 0 0 12 -22 9 -32 -5 -5 -6 -8 -4 -9 5 0 10 -3
8 -8 -5 -8 -20 8 -45 29 -45 6 0 8 -4 5 -10 -3 -6 1 -10 10 -10 9 0 13 -4 10
-10 -3 -5 -2 -10 3 -10 4 0 19 -10 32 -22 14 -13 28 -22 32 -21 5 2 8 -4 8
-13 0 -8 4 -12 10 -9 5 3 10 1 10 -5 0 -6 5 -8 10 -5 5 3 10 -1 10 -9 0 -9 9
-16 21 -16 11 0 17 -4 14 -10 -5 -9 1 -12 21 -9 4 0 10 -4 14 -11 4 -6 16 -12
28 -13 11 0 18 -5 15 -11 -4 -5 1 -7 10 -3 12 4 17 1 17 -11 0 -15 2 -15 10
-2 8 13 10 12 10 -2 0 -10 5 -18 11 -18 5 0 7 6 3 13 -6 9 -5 9 8 0 8 -7 19
-9 23 -5 5 4 5 1 1 -5 -7 -13 0 -16 37 -16 9 0 17 -4 17 -10 0 -5 8 -3 17 4
11 10 14 10 9 2 -8 -14 -6 -15 41 -17 17 -1 38 -8 47 -15 13 -11 16 -11 16 0
0 11 2 11 10 -1 5 -8 10 -11 10 -6 0 5 8 2 17 -5 15 -12 16 -12 8 1 -7 11 -2
10 19 -4 25 -16 28 -16 23 -2 -5 13 -3 14 14 3 20 -13 21 -44 1 -40 -7 2 -12
-4 -12 -12 0 -9 -6 -12 -17 -8 -10 4 -14 2 -10 -4 8 -12 -20 -26 -34 -17 -5 3
-9 1 -9 -3 0 -5 -14 -8 -30 -7 -22 1 -28 -1 -21 -9 7 -9 -4 -12 -40 -11 -28 0
-52 -3 -55 -8 -8 -13 -26 -9 -18 5 6 9 4 9 -7 -1 -7 -6 -25 -12 -40 -12 -15 0
-31 -5 -34 -10 -5 -8 -11 -8 -20 0 -9 8 -14 6 -19 -5 -3 -8 -9 -15 -13 -14
-26 4 -34 -1 -21 -15 7 -8 16 -12 21 -9 4 2 7 -3 7 -11 0 -9 5 -16 11 -16 5 0
7 6 4 13 -4 6 3 2 14 -11 11 -13 22 -23 25 -22 21 1 26 -1 21 -10 -5 -9 21
-14 62 -13 7 1 11 -3 8 -7 -9 -14 40 -29 60 -18 10 6 15 6 12 1 -3 -5 9 -14
26 -21 29 -10 30 -10 13 3 -11 8 -15 15 -9 15 7 0 18 -6 25 -12 18 -18 38 -21
38 -6 0 6 7 3 15 -8 10 -13 14 -15 15 -5 0 11 4 11 18 -2 17 -15 19 -15 36 1
16 16 17 16 10 0 -6 -18 6 -25 20 -11 10 10 46 11 40 1 -5 -8 10 -12 35 -9 8
2 10 -2 5 -11 -6 -9 -3 -9 10 1 15 13 19 13 27 0 7 -12 9 -12 9 1 0 13 1 13
10 0 9 -13 10 -13 10 0 0 13 1 13 10 0 9 -13 10 -13 10 0 0 13 1 13 10 0 9
-13 11 -13 20 0 8 12 10 12 10 1 0 -8 7 -11 20 -8 11 3 18 2 15 -3 -3 -4 2
-11 11 -14 21 -8 24 -8 24 5 0 5 -5 7 -10 4 -6 -3 -10 -1 -10 4 0 14 13 14 28
-1 7 -7 12 -8 12 -4 0 5 6 3 14 -3 11 -9 20 -9 35 -2 26 14 34 14 25 -1 -5 -7
-1 -9 13 -6 12 3 20 0 20 -8 0 -8 -2 -12 -5 -10 -6 6 -47 -38 -44 -47 1 -5 -2
-6 -8 -2 -5 3 -10 1 -10 -5 0 -6 -5 -8 -12 -4 -8 5 -9 2 -5 -10 4 -10 3 -15
-3 -11 -5 3 -19 -4 -30 -15 -11 -11 -25 -18 -30 -15 -6 4 -10 -1 -10 -9 0 -13
-22 -22 -33 -13 -2 1 -11 -6 -21 -16 -10 -9 -22 -14 -28 -11 -7 5 -8 2 -3 -6
6 -9 4 -12 -7 -8 -8 4 -21 2 -29 -3 -11 -7 -11 -9 -1 -9 7 0 10 -5 6 -11 -4
-7 1 -7 16 1 19 10 22 10 17 -2 -4 -12 2 -14 26 -12 17 2 34 10 39 17 5 8 8 8
8 1 0 -7 20 -14 44 -15 24 -2 42 -1 40 3 -2 4 0 9 6 13 5 3 10 -2 11 -12 0
-11 3 -13 6 -5 2 6 9 9 14 6 17 -10 59 -12 59 -3 0 5 5 9 11 9 5 0 7 -5 3 -11
-3 -6 5 -4 19 5 22 15 26 15 40 2 13 -14 17 -14 27 -1 9 10 17 12 30 5 13 -7
21 -5 30 5 9 11 17 12 31 4 14 -7 19 -6 19 2 0 8 5 8 16 -1 8 -8 14 -9 13 -4
-4 21 2 26 18 13 9 -8 14 -9 10 -3 -4 7 2 14 13 17 11 3 20 2 20 -2 0 -4 6 -8
14 -8 8 0 15 3 14 6 -2 19 4 24 12 11 9 -13 10 -13 10 0 0 10 10 15 33 15 21
0 31 4 29 13 -2 10 2 10 19 1 13 -6 19 -7 15 -1 -3 6 -2 13 4 17 5 3 10 0 10
-7 1 -8 5 -7 14 5 8 10 30 21 50 24 19 3 33 9 30 14 -5 9 9 13 32 10 6 -1 19
8 29 19 10 11 27 20 37 20 10 0 21 7 24 15 5 12 10 13 20 4 10 -8 12 -6 9 11
-3 18 -2 20 10 10 12 -10 15 -9 16 6 0 11 3 14 6 6 2 -6 9 -10 13 -7 5 3 12 0
16 -6 4 -7 3 -9 -3 -6 -6 4 -16 0 -23 -8 -11 -13 -10 -14 6 -9 11 3 6 -3 -9
-14 -16 -11 -28 -22 -28 -26 3 -20 -2 -27 -26 -41 -16 -9 -20 -14 -9 -10 21 6
6 -13 -74 -94 -25 -25 -38 -41 -30 -37 8 4 6 0 -4 -8 -11 -9 -23 -16 -28 -16
-4 0 -5 -7 -2 -15 5 -11 2 -13 -10 -9 -12 5 -15 2 -9 -12 4 -12 3 -15 -5 -10
-7 4 -12 3 -12 -3 0 -5 -3 -18 -6 -28 -4 -12 -3 -14 3 -6 5 7 19 11 31 8 13
-2 22 1 22 8 0 7 4 6 10 -3 8 -13 11 -12 25 5 16 19 16 19 11 1 -5 -15 -4 -17
7 -8 8 7 17 9 20 5 4 -3 15 2 26 11 14 13 21 14 27 5 5 -8 3 -10 -6 -4 -9 6
-11 4 -5 -5 6 -10 10 -10 19 3 9 11 16 13 30 5 14 -8 17 -7 12 1 -4 6 -1 11 6
12 34 2 63 11 69 21 6 9 12 8 23 -2 14 -11 16 -10 10 4 -5 12 -2 15 12 9 12
-4 15 -3 10 6 -9 14 16 11 26 -4 5 -6 8 -3 8 7 0 12 5 15 17 11 12 -5 15 -2
10 10 -6 15 -4 16 14 6 15 -8 19 -8 15 0 -4 6 -2 11 4 11 6 0 8 4 5 10 -3 6 1
7 9 4 10 -4 16 -1 16 7 0 12 2 12 9 0 7 -11 10 -9 16 9 6 18 9 20 16 9 6 -10
9 -11 9 -1 0 6 4 12 9 12 13 0 0 -51 -15 -57 -8 -3 -11 -9 -8 -14 3 -5 -2 -9
-10 -9 -10 0 -13 -7 -11 -21 3 -12 2 -19 -2 -16 -10 10 -53 -42 -53 -64 0 -17
-11 -24 -34 -20 -5 1 -3 -6 5 -15 12 -16 12 -17 -4 -11 -15 6 -16 4 -6 -14 6
-12 7 -19 1 -15 -5 3 -18 -6 -27 -20 -9 -15 -12 -23 -6 -20 6 4 11 2 11 -4 0
-6 5 -8 12 -4 7 5 8 3 4 -5 -5 -7 -14 -10 -21 -7 -9 3 -12 -2 -10 -16 4 -17 2
-19 -8 -9 -9 9 -17 6 -37 -16 -14 -16 -20 -22 -15 -14 6 10 0 8 -16 -4 -18
-13 -23 -22 -15 -27 10 -7 -14 -13 -36 -9 -4 0 -12 -8 -18 -19 -6 -11 -15 -18
-21 -15 -5 4 -9 0 -9 -8 0 -8 -8 -14 -17 -13 -10 0 -17 -5 -16 -11 3 -12 -17
-18 -40 -14 -5 1 -6 -3 -3 -8 11 -17 -22 -39 -49 -33 -20 3 -23 7 -13 13 11 7
11 9 0 9 -8 0 -12 6 -9 13 2 6 -3 17 -12 24 -11 9 -12 12 -3 13 10 0 10 3 0
14 -7 8 -17 11 -23 8 -5 -3 -4 2 4 11 11 14 11 18 -4 23 -13 5 -14 9 -3 15 10
7 8 9 -6 9 -12 0 -16 5 -12 16 4 10 2 13 -6 8 -7 -5 -9 -2 -6 7 6 15 -16 42
-26 32 -3 -4 -6 3 -6 15 0 12 -4 22 -10 22 -5 0 -10 6 -10 14 0 9 -7 13 -19
11 -15 -3 -18 1 -14 18 4 18 3 19 -6 7 -7 -10 -11 -11 -11 -2 0 6 -7 12 -16
12 -9 0 -12 5 -8 12 5 7 2 9 -9 5 -9 -3 -18 1 -22 11 -5 14 -7 14 -15 2 -7
-11 -10 -11 -10 -2 0 21 -47 37 -65 22 -10 -8 -15 -9 -15 -1 0 6 -10 1 -21
-10 -16 -16 -23 -18 -29 -9 -6 9 -10 6 -15 -9 -4 -12 -11 -19 -18 -15 -7 4 -9
3 -4 -1 4 -5 0 -19 -8 -32 -9 -13 -13 -28 -10 -33 3 -6 2 -10 -3 -10 -5 0 -7
-12 -4 -26 3 -17 8 -22 15 -15 7 7 16 7 29 0 10 -5 18 -6 18 -1 0 5 7 9 15 9
8 0 15 -3 15 -7 0 -3 12 -6 28 -6 19 1 27 -4 27 -16 0 -10 6 -23 14 -30 11
-11 13 -11 6 1 -6 10 -4 12 4 7 9 -6 9 -11 -1 -24 -10 -12 -10 -14 0 -8 8 5
12 0 12 -14 0 -12 9 -24 23 -30 12 -5 17 -9 10 -9 -8 -1 -8 -7 0 -25 7 -13 16
-22 21 -19 5 4 7 -1 3 -11 -4 -9 -3 -14 2 -11 5 3 12 1 16 -5 3 -5 1 -10 -6
-10 -8 0 -7 -5 2 -17 13 -15 12 -15 -12 0 -14 10 -29 14 -34 10 -4 -5 -5 -2
-1 5 5 9 1 15 -13 19 -12 3 -21 9 -21 14 0 5 -7 9 -15 9 -8 0 -15 4 -15 10 0
5 -3 9 -7 9 -19 -3 -34 2 -29 9 2 4 -5 9 -17 9 -12 1 -23 7 -25 13 -2 5 -8 10
-14 10 -5 0 -16 7 -24 15 -8 8 -22 11 -31 8 -12 -5 -14 -3 -8 7 6 10 4 12 -8
7 -11 -4 -17 -1 -17 8 0 17 -26 20 -35 5 -5 -8 -11 -7 -21 1 -11 9 -14 8 -14
-5 0 -9 -5 -16 -11 -16 -5 0 -7 6 -4 13 4 6 -1 3 -9 -7 -9 -11 -16 -16 -16
-10 0 5 -5 1 -11 -9 -6 -9 -15 -14 -21 -11 -7 4 -8 2 -4 -5 4 -6 2 -18 -4 -26
-6 -8 -9 -19 -5 -25 4 -6 3 -10 -2 -9 -20 3 -27 -2 -13 -11 10 -6 11 -10 3
-10 -7 0 -13 -12 -13 -26 0 -17 -4 -23 -12 -18 -10 6 -10 5 -1 -7 10 -12 10
-18 0 -29 -6 -7 -7 -10 -1 -7 6 4 11 -5 11 -22 0 -22 -4 -28 -16 -24 -11 3
-11 1 2 -7 13 -9 15 -15 7 -25 -8 -9 -7 -14 5 -18 8 -4 12 -13 9 -20 -3 -8 1
-17 9 -20 11 -4 13 0 10 14 -3 10 -1 19 5 19 5 0 12 9 15 20 3 13 1 18 -6 14
-7 -3 -4 1 5 9 10 8 15 17 11 20 -3 4 -1 7 5 7 7 0 11 6 9 13 -1 6 3 11 10 10
7 -2 10 4 6 13 -3 9 0 14 8 12 8 -2 13 3 12 10 -3 11 8 16 23 10 3 -2 10 5 16
16 8 15 12 16 19 5 8 -12 11 -12 18 1 9 12 11 12 17 -3 3 -9 10 -14 15 -11 5
3 9 0 9 -5 0 -6 7 -11 16 -11 8 0 12 -5 9 -10 -6 -9 8 -14 28 -11 4 0 7 -6 7
-15 0 -11 5 -14 16 -10 11 4 18 -1 21 -14 3 -11 12 -20 20 -20 10 0 13 -6 9
-16 -6 -15 -4 -15 11 -3 10 7 15 9 11 5 -4 -5 0 -15 10 -22 16 -12 16 -14 0
-31 -14 -14 -18 -14 -18 -3 0 13 -2 13 -10 0 -8 -13 -10 -12 -10 4 0 20 0 20
-16 0 -8 -10 -13 -13 -9 -6 6 13 -3 16 -44 14 -14 -1 -30 3 -37 9 -8 7 -14 6
-19 -2 -6 -8 -10 -7 -16 2 -7 11 -9 10 -9 -3 0 -10 -6 -17 -12 -15 -7 1 -12
-4 -10 -12 3 -12 1 -12 -14 0 -12 9 -15 9 -10 2 4 -8 2 -13 -4 -13 -6 0 -8 -5
-4 -12 5 -8 2 -9 -9 -5 -10 3 -17 3 -18 -1 0 -4 -2 -17 -3 -29 -2 -13 2 -23 8
-23 7 0 7 -3 1 -8 -14 -10 -17 -32 -4 -32 8 0 8 -4 1 -13 -9 -10 -7 -19 5 -37
9 -13 11 -20 5 -16 -7 4 -12 3 -12 -2 0 -5 10 -14 23 -21 12 -6 14 -9 5 -7
-10 3 -20 1 -23 -5 -4 -5 -3 -9 2 -8 20 3 25 -2 13 -16 -10 -12 -8 -14 12 -10
22 4 22 3 4 -10 -18 -14 -18 -14 1 -12 11 0 20 9 20 20 1 13 -3 17 -15 13 -15
-6 -16 -5 -1 7 12 9 14 19 8 34 -6 16 -5 21 5 17 9 -3 12 4 11 25 -1 17 2 28
7 25 5 -3 17 3 26 14 10 11 26 18 40 16 17 -3 21 0 16 8 -6 10 -4 10 8 0 11
-9 18 -10 23 -2 3 6 12 7 18 3 19 -12 49 -14 42 -3 -3 6 1 7 9 4 9 -3 16 -11
16 -18 0 -6 5 -4 10 4 7 11 10 11 10 2 0 -7 4 -11 9 -7 5 3 16 -2 25 -10 10
-10 17 -12 21 -4 5 7 13 5 24 -5 9 -9 26 -17 38 -19 12 -1 29 -9 39 -17 11 -9
15 -10 10 -2 -4 6 -2 12 3 12 6 0 11 -4 11 -10 0 -5 9 -10 20 -10 11 0 20 -4
20 -10 0 -5 9 -10 19 -10 11 0 26 -7 34 -15 8 -8 17 -11 21 -8 3 4 6 -1 6 -9
0 -9 14 -21 30 -27 17 -5 30 -15 30 -21 0 -6 3 -9 8 -7 4 3 13 -1 20 -9 7 -8
9 -14 5 -14 -4 0 3 -6 17 -13 17 -9 25 -21 25 -39 -1 -15 1 -25 4 -23 10 11
28 -18 23 -37 -4 -16 -2 -19 8 -13 9 6 11 4 5 -5 -12 -19 -12 -70 0 -70 6 0 4
-4 -4 -9 -8 -5 -12 -18 -8 -31 4 -16 2 -19 -7 -11 -8 7 -12 5 -12 -9 0 -22 22
-35 32 -18 4 7 9 6 15 -3 7 -11 9 -10 9 3 0 11 6 16 19 13 11 -2 22 3 25 11 3
9 10 12 16 9 5 -3 10 1 10 11 0 14 3 14 15 4 13 -11 14 -10 9 5 -5 13 -4 16 4
11 8 -5 10 -1 5 10 -4 10 -2 15 4 11 5 -3 10 -1 11 6 0 7 4 23 8 37 6 25 6 25
-10 5 -17 -20 -17 -19 -6 3 7 13 9 26 6 29 -3 3 0 15 6 26 8 16 8 19 -5 14
-16 -6 -17 8 -3 31 4 7 4 11 -1 10 -4 -2 -10 2 -12 7 -3 6 -10 16 -17 23 -7 7
-10 20 -7 29 4 11 3 14 -5 9 -8 -4 -12 -1 -12 10 0 10 -10 29 -22 43 -13 14
-15 19 -5 12 15 -12 17 -12 11 3 -3 9 -10 16 -15 16 -5 0 -9 7 -9 15 0 8 -5
15 -12 15 -6 0 -8 3 -5 7 4 3 2 12 -4 20 -9 10 -8 13 1 13 10 0 10 3 0 15 -7
8 -8 15 -3 15 5 0 9 13 8 30 -2 26 0 28 14 17 12 -9 13 -9 7 1 -4 7 -2 12 5
12 7 0 10 3 6 6 -9 10 30 47 42 39 6 -3 11 2 11 12 0 14 2 15 9 5 4 -8 12 -14
16 -14 4 0 12 6 16 14 7 11 9 11 9 -1 0 -11 3 -11 17 0 14 12 15 12 9 1 -7
-11 -4 -12 13 -3 11 7 21 8 21 4 0 -4 11 -8 24 -8 13 0 22 4 19 9 -3 5 0 6 8
4 8 -3 22 1 32 10 9 8 17 10 17 4 0 -6 -6 -13 -12 -15 -10 -4 -10 -6 0 -6 24
-2 27 -1 28 9 1 6 2 13 3 16 0 4 9 0 18 -7 14 -12 16 -12 8 0 -6 11 -3 13 13
9 13 -4 23 0 26 9 4 8 13 13 21 9 8 -3 15 -1 15 4 0 5 9 7 20 5 11 -2 23 1 26
7 4 7 2 8 -4 4 -7 -4 -12 -2 -12 5 0 6 8 9 20 6 11 -3 18 -1 14 4 -3 5 2 9 10
9 9 0 16 4 16 10 0 5 7 6 17 3 12 -5 14 -3 8 7 -6 10 -4 12 9 7 13 -5 17 -3
13 7 -4 11 -1 13 10 9 12 -5 14 -3 8 7 -6 10 -4 12 8 7 9 -3 21 1 29 11 11 15
11 16 -2 7 -9 -5 -7 -2 5 7 11 9 28 24 38 32 9 9 21 16 27 16 5 0 9 5 7 11 -2
12 31 21 46 12 4 -3 0 -14 -10 -26 -13 -14 -14 -18 -3 -13 8 4 6 0 -5 -9 -17
-14 -18 -17 -5 -25 13 -8 12 -10 -3 -10 -10 0 -15 -4 -12 -10 3 -5 1 -10 -6
-10 -7 0 -9 -3 -6 -6 10 -11 -13 -45 -25 -38 -6 4 -8 3 -4 -4 3 -6 2 -14 -4
-17 -6 -4 -8 -15 -5 -26 5 -15 3 -17 -11 -12 -12 4 -15 3 -10 -5 4 -7 2 -12
-4 -12 -6 0 -8 -5 -5 -10 3 -6 -1 -13 -9 -16 -9 -3 -13 -10 -10 -15 3 -5 0 -9
-6 -9 -6 0 -8 -5 -4 -12 5 -7 3 -8 -5 -4 -8 5 -14 0 -18 -13 -3 -12 -10 -21
-15 -21 -5 0 -6 -6 -2 -13 5 -7 0 -6 -11 3 -11 9 -16 10 -11 3 4 -8 2 -13 -5
-13 -7 0 -10 -3 -6 -6 8 -8 -25 -44 -35 -38 -4 3 -8 -3 -8 -13 0 -14 -2 -15
-9 -5 -6 10 -10 7 -15 -12 -4 -15 -10 -24 -15 -21 -5 2 -11 -2 -15 -10 -3 -8
-11 -15 -18 -15 -8 0 -20 -9 -28 -19 -7 -11 -18 -17 -24 -14 -5 4 -7 -1 -3
-10 3 -9 3 -16 -1 -16 -21 3 -32 -3 -32 -18 0 -15 -2 -16 -10 -3 -8 12 -10 12
-16 -3 -4 -10 -13 -16 -20 -13 -8 3 -14 -1 -14 -10 0 -8 -4 -12 -10 -9 -6 4
-7 -1 -3 -11 5 -13 3 -15 -8 -10 -8 4 -3 -1 11 -13 16 -13 33 -18 47 -14 15 3
25 0 29 -11 3 -9 10 -16 16 -16 5 0 6 6 2 12 -6 9 -3 9 9 0 9 -8 20 -11 26 -8
5 3 12 0 14 -6 3 -7 6 -8 6 -3 1 7 23 9 61 5 33 -3 67 -2 76 3 14 8 13 6 -1
-17 -10 -14 -21 -23 -26 -20 -5 3 -6 -1 -3 -9 3 -8 -2 -17 -11 -21 -9 -3 -14
-10 -10 -16 3 -5 -6 -12 -20 -16 -13 -3 -23 -10 -20 -14 3 -4 -3 -14 -12 -21
-14 -12 -16 -12 -9 1 4 8 0 6 -9 -5 -9 -11 -21 -19 -26 -17 -5 1 -9 -6 -10
-15 0 -12 -2 -14 -6 -5 -4 10 -9 8 -20 -7 -8 -12 -21 -21 -29 -21 -8 0 -22 -9
-31 -20 -10 -11 -28 -20 -41 -20 -16 0 -22 -4 -19 -14 4 -10 -3 -13 -24 -11
-25 2 -28 1 -17 -13 12 -14 10 -14 -12 -2 -14 7 -22 9 -18 5 4 -5 3 -14 -3
-21 -8 -10 -5 -11 12 -7 17 5 20 3 14 -8 -8 -12 -6 -12 8 0 12 9 17 10 17 2 0
-7 5 -9 10 -6 6 3 10 0 10 -7 0 -9 3 -9 10 2 6 9 10 11 10 3 0 -7 7 -10 17 -6
11 4 14 3 9 -5 -4 -7 -3 -12 3 -12 5 0 13 5 16 11 5 6 12 4 20 -7 13 -18 55
-27 55 -12 0 5 6 6 13 1 12 -7 27 -12 57 -17 34 -6 60 -18 60 -28 0 -6 -7 -5
-17 3 -12 10 -15 10 -9 1 5 -8 -8 -27 -33 -53 -22 -23 -38 -46 -34 -52 3 -6 2
-8 -3 -5 -11 6 -45 -28 -37 -36 4 -3 -1 -6 -11 -6 -9 0 -15 -3 -13 -7 5 -9
-29 -43 -36 -37 -2 3 -7 -2 -11 -11 -4 -11 -2 -14 6 -9 7 4 8 3 4 -4 -4 -7
-14 -12 -23 -12 -9 0 -13 -6 -9 -15 3 -8 2 -14 -2 -12 -9 3 -58 -46 -55 -54 1
-3 -12 -19 -29 -35 -17 -16 -28 -23 -24 -16 4 6 4 12 1 12 -3 0 -11 -13 -16
-30 -7 -18 -15 -27 -22 -23 -7 4 -6 -1 2 -10 10 -12 18 -14 31 -7 25 13 32 13
25 -2 -4 -7 1 -4 9 6 16 20 16 20 17 0 1 -15 3 -14 9 6 4 14 8 19 9 11 1 -10
4 -11 15 -2 11 9 15 9 19 -1 4 -11 6 -10 6 0 1 7 6 10 11 7 6 -3 10 -1 10 4 0
6 5 11 11 11 5 0 7 -4 4 -10 -11 -17 7 -11 21 8 12 15 15 15 24 2 7 -12 10
-12 10 -1 0 7 6 11 15 7 8 -3 15 -1 15 4 0 5 9 7 20 5 11 -2 27 3 35 11 8 9
20 12 26 8 8 -4 9 -3 5 5 -5 8 0 10 18 7 14 -3 29 0 32 6 5 7 2 8 -6 3 -9 -5
-11 -4 -6 4 4 7 17 11 29 9 13 -2 21 2 20 9 -3 12 15 12 35 0 7 -5 10 -13 6
-18 -3 -5 -10 -7 -15 -4 -5 4 -9 3 -10 -2 -3 -30 -10 -49 -22 -58 -8 -5 -18
-21 -22 -35 -4 -14 -17 -35 -29 -47 -12 -12 -22 -27 -22 -32 -1 -6 -2 -16 -3
-22 0 -6 -9 -8 -18 -4 -14 5 -15 4 -6 -6 10 -10 7 -17 -12 -35 -13 -12 -21
-25 -18 -28 4 -3 1 -6 -5 -6 -7 0 -12 -5 -12 -11 0 -15 -26 -39 -34 -31 -4 3
-4 -2 0 -12 5 -14 4 -17 -4 -12 -7 4 -12 1 -12 -9 0 -11 -5 -15 -14 -12 -10 4
-12 0 -8 -15 3 -13 1 -19 -5 -15 -10 6 -28 -19 -25 -35 1 -4 -4 -5 -12 -2 -8
3 -17 0 -22 -7 -5 -8 -3 -10 7 -5 8 4 3 -2 -11 -14 -14 -12 -19 -19 -12 -15 6
3 12 0 12 -7 0 -10 2 -10 9 1 7 11 9 11 14 0 5 -12 7 -12 15 0 7 9 12 10 16 2
5 -8 13 -8 27 -1 14 8 19 7 20 -2 0 -7 4 -4 9 7 5 11 9 14 9 6 1 -10 7 -10 27
4 15 10 23 12 19 4 -6 -9 -3 -11 9 -6 10 4 20 7 22 7 3 0 2 5 -2 11 -5 8 -1 8
14 0 26 -14 32 -14 32 0 0 5 -5 7 -12 3 -6 -4 -8 -3 -5 4 4 5 18 9 32 7 14 -1
25 2 25 7 0 5 4 7 9 3 6 -3 14 3 20 12 6 10 11 14 11 9 0 -5 7 -3 15 4 12 10
15 10 16 -1 0 -8 5 -3 11 11 6 14 12 20 15 13 3 -8 10 -7 23 4 10 9 16 21 13
27 -4 6 0 5 9 -2 14 -11 17 -10 23 7 3 12 11 21 16 21 6 0 7 -6 3 -12 -4 -7 3
-3 16 10 13 14 28 21 37 17 14 -5 14 -3 2 12 -7 10 -9 15 -5 11 5 -4 16 -2 24
4 12 11 12 8 0 -22 -8 -19 -13 -41 -10 -49 2 -8 0 -11 -5 -8 -5 3 -15 -4 -23
-16 -12 -20 -12 -21 3 -8 12 9 17 10 17 2 0 -6 -6 -14 -14 -17 -9 -3 -12 -12
-9 -21 4 -11 2 -14 -5 -9 -11 7 -16 -5 -13 -31 1 -6 -3 -14 -8 -18 -6 -3 -7
-13 -4 -23 6 -14 4 -15 -8 -5 -13 11 -15 8 -14 -22 1 -19 -2 -32 -6 -29 -5 3
-9 0 -9 -6 0 -6 -5 -8 -11 -4 -8 5 -8 1 0 -14 8 -15 7 -23 -3 -31 -7 -6 -17
-7 -22 -3 -4 4 -2 -1 6 -11 11 -16 11 -18 -1 -15 -8 2 -13 -3 -11 -9 1 -7 -6
-13 -15 -14 -10 0 -13 -3 -6 -6 9 -3 9 -8 2 -16 -5 -7 -17 -21 -25 -32 -9 -11
-12 -13 -8 -5 4 9 3 12 -2 7 -5 -5 -10 -13 -10 -18 -1 -5 -2 -14 -3 -20 0 -5
-5 -7 -11 -4 -5 3 -10 -1 -10 -10 0 -9 -5 -13 -11 -10 -6 4 -5 -2 2 -14 8 -11
16 -16 20 -10 5 9 44 18 86 21 8 1 9 5 3 13 -6 7 -3 11 10 11 10 0 17 -4 14
-7 -2 -4 9 -1 26 7 17 9 28 19 25 24 -3 4 4 6 15 3 12 -3 20 0 20 8 0 7 3 9 7
6 3 -4 12 1 20 11 10 11 12 12 8 2 -4 -8 3 -4 14 10 14 18 21 21 21 10 1 -9 6
-6 12 8 6 13 17 21 24 18 8 -3 11 0 8 8 -3 8 0 17 7 22 8 4 10 3 5 -4 -4 -7
-2 -12 3 -12 6 0 11 7 11 15 0 8 5 15 11 15 5 0 7 -5 3 -12 -4 -7 -3 -8 5 -4
8 5 9 12 2 20 -7 9 -2 12 20 14 19 2 28 -1 24 -8 -3 -6 -11 -7 -17 -4 -6 4 -6
-2 1 -15 7 -11 8 -21 2 -21 -5 0 -12 -7 -15 -16 -4 -10 -2 -13 6 -8 7 4 2 -9
-10 -28 -21 -34 -21 -37 -5 -41 17 -4 17 -5 0 -6 -10 0 -15 -6 -12 -12 4 -5
-1 -20 -12 -31 -10 -12 -13 -18 -6 -15 8 5 11 -1 9 -20 -2 -17 -10 -29 -21
-32 -14 -2 -15 -5 -5 -11 11 -7 11 -12 -1 -26 -12 -16 -12 -17 1 -9 13 8 13 6
2 -8 -8 -9 -11 -20 -8 -25 3 -5 -2 -22 -11 -38 -9 -16 -15 -41 -14 -56 1 -14
-5 -33 -13 -41 -11 -11 -12 -17 -3 -26 8 -8 8 -11 -2 -11 -7 0 -10 -4 -7 -9 4
-5 2 -11 -4 -13 -16 -5 -20 -46 -5 -58 15 -13 16 5 1 28 -7 12 -4 12 14 2 12
-7 20 -8 16 -2 -3 5 4 12 15 15 14 4 20 11 16 21 -4 9 -3 15 1 15 20 -3 33 2
27 11 -3 5 -1 10 5 10 6 0 9 4 5 9 -3 6 3 8 14 6 15 -3 19 1 16 16 -2 11 -1
18 3 16 11 -5 51 41 43 50 -3 4 3 1 13 -7 12 -9 17 -10 12 -3 -7 13 66 93 85
93 6 0 8 3 5 8 -2 4 3 16 11 27 13 16 15 17 10 2 -10 -27 1 -20 18 13 9 16 23
30 33 30 15 0 15 -2 2 -10 -13 -9 -12 -13 9 -30 13 -11 18 -20 11 -20 -9 0 -9
-4 1 -17 8 -9 9 -14 3 -10 -13 8 -11 -25 5 -65 6 -16 7 -28 3 -28 -4 0 -1 -4
6 -8 7 -5 14 -26 16 -48 2 -21 8 -38 13 -37 6 1 8 -10 5 -24 -4 -20 -2 -24 9
-18 12 7 12 6 1 -7 -10 -13 -10 -18 -1 -24 8 -5 9 -3 4 6 -5 8 -4 11 2 7 6 -4
8 -18 5 -33 -3 -18 0 -30 11 -36 10 -5 14 -15 10 -26 -3 -9 -3 -14 2 -10 4 4
19 -15 32 -42 13 -28 28 -50 34 -50 6 0 7 -4 4 -10 -3 -5 -1 -10 5 -10 6 0 8
-5 5 -10 -3 -6 0 -10 9 -10 8 0 17 6 20 13 3 6 4 1 1 -13 -3 -14 -2 -19 1 -12
3 6 10 10 15 7 5 -4 6 1 3 9 -3 9 -1 16 5 16 6 0 10 5 9 12 -2 7 2 12 9 13 6
0 15 4 20 9 5 5 3 6 -5 2 -17 -10 -15 2 3 21 8 8 13 19 9 24 -3 5 2 12 10 15
9 3 13 10 10 15 -3 5 0 9 6 9 7 0 9 7 6 16 -5 14 -4 15 9 4 13 -11 14 -10 9 4
-3 9 -1 16 6 16 6 0 8 5 5 10 -3 6 -1 10 4 10 6 0 11 5 11 11 0 5 -6 7 -12 4
-7 -4 -6 -1 2 7 8 7 16 20 18 28 2 8 8 16 13 18 5 2 4 13 -3 25 -10 19 -9 20
3 10 12 -10 15 -8 17 10 5 45 10 62 19 60 5 -1 9 6 9 15 -1 9 2 17 5 17 3 0
14 7 24 15 11 9 16 10 11 3 -4 -8 -1 -13 9 -13 10 0 13 5 9 12 -5 7 -3 8 6 3
21 -13 90 -14 84 -1 -3 6 0 4 8 -5 13 -16 19 -19 39 -19 5 0 7 -4 4 -10 -3 -5
-1 -11 4 -11 6 -1 15 -2 20 -3 5 0 13 -5 18 -10 5 -6 2 -6 -7 -1 -10 5 -8 1 4
-13 23 -26 28 -28 19 -5 -4 11 -3 14 5 9 7 -4 12 -13 12 -19 0 -7 10 -17 22
-22 13 -6 22 -16 21 -22 -2 -7 6 -10 17 -8 13 3 17 -1 13 -11 -6 -17 8 -19 24
-3 9 9 11 7 7 -8 -4 -13 0 -22 10 -26 18 -7 32 8 16 18 -5 3 -10 11 -10 16 0
6 4 8 8 5 5 -3 9 1 9 9 0 8 -4 12 -8 10 -4 -3 -10 2 -13 11 -3 8 -2 13 3 10 5
-4 7 3 4 14 -3 11 -9 17 -14 14 -5 -3 -9 -1 -9 5 0 5 5 13 10 16 6 4 7 11 4
17 -4 7 -2 8 4 4 7 -4 12 -3 12 2 0 5 7 9 15 9 8 0 15 -4 15 -9 0 -4 5 -8 11
-8 5 0 8 3 6 8 -3 4 6 8 19 8 15 1 21 -2 17 -10 -4 -6 1 -5 10 3 14 11 17 11
17 0 0 -8 6 -6 16 7 8 10 13 14 10 7 -7 -12 30 -13 51 0 5 3 13 4 17 0 10 -10
56 -10 56 1 0 5 9 1 20 -9 20 -18 21 -18 14 -1 -6 16 -4 17 11 8 12 -6 28 -7
42 -1 14 5 25 4 29 -3 5 -7 3 -8 -6 -3 -9 5 -11 4 -6 -4 10 -15 26 -5 27 17 0
10 3 12 5 5 3 -7 12 -9 21 -6 12 5 14 3 8 -6 -4 -8 4 -6 19 4 15 10 26 13 26
6 0 -6 -5 -11 -11 -11 -5 0 -7 -5 -3 -11 5 -8 10 -6 16 5 8 14 12 15 26 4 12
-10 14 -10 8 0 -4 7 -2 12 4 12 6 0 8 5 4 12 -4 7 -3 8 4 4 7 -4 12 -15 12
-24 1 -15 2 -15 11 1 9 15 13 16 27 5 12 -10 14 -10 8 -1 -4 7 -2 13 3 13 6 0
11 -4 11 -9 0 -10 46 -8 57 2 3 4 13 2 20 -5 9 -7 17 -8 21 -2 11 14 85 15 94
1 6 -9 8 -9 8 2 0 7 6 11 15 8 8 -4 17 -2 21 4 4 7 10 6 19 -1 9 -7 16 -6 25
5 7 8 9 15 4 15 -5 0 -2 5 6 10 9 6 10 10 3 10 -7 0 -12 10 -11 23 2 40 -2 45
-24 40 -19 -4 -20 -3 -8 6 12 8 8 10 -17 7 -18 -3 -37 -7 -42 -10 -5 -3 -12 1
-15 10 -6 15 -9 15 -28 -2 -12 -11 -19 -14 -16 -9 3 6 -1 17 -10 25 -14 13
-15 12 -9 -3 5 -13 2 -16 -13 -14 -11 2 -23 7 -27 12 -5 4 -2 5 6 0 10 -6 12
-4 6 5 -6 10 -10 10 -20 -3 -11 -15 -13 -15 -30 1 -10 9 -15 11 -11 5 4 -8 1
-13 -8 -13 -9 0 -16 6 -16 13 0 8 -4 7 -10 -3 -8 -12 -10 -12 -10 -1 0 11 -3
11 -15 1 -12 -10 -15 -10 -15 0 0 10 -3 10 -14 1 -10 -9 -16 -9 -21 -1 -5 8
-10 8 -20 0 -10 -8 -15 -8 -20 0 -4 6 -12 9 -18 7 -7 -2 -20 0 -29 4 -10 6
-19 5 -23 -1 -4 -6 -11 -8 -16 -4 -6 3 -5 12 3 22 12 14 10 14 -9 3 -14 -7
-23 -8 -23 -2 0 6 -7 7 -17 4 -10 -4 -14 -2 -10 4 4 5 -5 15 -19 22 -17 7 -23
8 -19 0 4 -6 -2 -5 -14 3 -12 7 -21 18 -21 25 0 7 -14 22 -30 35 -17 12 -30
28 -30 35 0 7 -3 13 -7 13 -12 0 -47 79 -46 100 1 10 -5 21 -13 24 -10 4 -13
13 -9 26 4 13 2 20 -7 20 -11 0 -11 2 0 9 19 12 19 15 2 36 -9 11 -10 16 -2
11 16 -9 16 6 0 23 -11 11 -10 12 2 6 13 -8 13 -7 1 8 -11 14 -11 17 0 17 11
0 11 2 -1 10 -11 7 -11 10 -2 10 10 0 10 5 2 20 -9 16 -8 20 7 21 16 0 16 1
-2 9 -11 5 -14 9 -7 9 7 1 10 6 7 11 -4 6 -12 7 -18 3 -7 -4 -6 1 2 10 11 14
12 23 2 44 -10 22 -10 24 1 16 10 -9 13 -6 15 14 1 19 -1 22 -8 12 -7 -12 -9
-12 -10 1 0 8 -2 23 -4 33 -2 9 1 15 6 11 5 -3 9 2 9 11 0 9 -4 14 -8 11 -10
-6 -9 30 1 40 10 10 9 26 -1 20 -4 -2 -8 8 -7 24 0 15 3 26 7 23 5 -2 8 1 8 6
0 6 -5 11 -12 11 -9 0 -9 3 -1 11 7 7 8 20 4 33 -4 11 -7 28 -6 36 1 8 -3 20
-7 27 -6 7 -4 14 3 19 8 5 10 3 4 -7 -6 -11 -5 -12 5 -2 12 11 11 16 -6 29
-10 8 -14 13 -8 10 7 -3 15 1 18 10 3 9 2 12 -5 8 -7 -4 -10 3 -8 17 2 13 0
30 -4 37 -5 7 -3 12 4 12 8 0 7 5 -2 17 -10 11 -10 14 -1 9 14 -9 14 -9 3 32
-6 20 -6 32 0 32 6 0 5 8 -1 20 -8 15 -8 20 2 20 8 0 9 3 3 8 -13 9 -15 42 -3
42 7 0 7 4 1 13 -5 6 -8 34 -7 60 2 31 0 45 -7 41 -6 -3 -5 4 3 15 11 18 11
23 -2 31 -8 5 -10 10 -4 10 12 0 12 28 1 47 -4 6 -3 14 3 18 5 3 10 11 10 16
0 6 -4 8 -8 5 -4 -2 -8 4 -8 14 0 10 4 16 8 14 4 -3 8 0 8 5 0 6 -6 11 -12 11
-9 0 -8 4 2 10 10 6 11 10 3 10 -7 0 -13 5 -13 11 0 5 6 7 13 3 9 -6 9 -5 0 7
-10 12 -10 18 -1 27 9 9 8 12 -7 12 -18 0 -18 0 1 16 16 13 16 15 2 10 -10 -3
-18 -1 -18 4 0 6 7 10 16 10 8 0 12 5 9 10 -4 6 -12 8 -18 4 -7 -3 -3 2 7 10
17 14 16 20 -5 18 -3 0 -5 10 -5 23 0 13 4 21 8 19 4 -3 8 0 8 5 0 6 -6 11
-12 12 -7 0 -4 4 7 9 14 6 15 9 5 9 -12 1 -15 13 -15 48 0 27 4 54 9 62 6 9 5
12 -2 7 -7 -4 -10 3 -8 21 2 16 -1 33 -6 40 -6 7 -5 14 3 19 8 5 9 3 4 -6 -5
-9 -4 -11 4 -6 9 6 9 11 0 22 -6 8 -9 14 -5 14 3 0 1 11 -4 25 -6 15 -6 26 0
30 6 4 10 11 10 16 0 6 -5 7 -12 3 -7 -4 -8 -3 -4 4 13 21 15 52 4 52 -7 0 -6
6 2 15 10 12 10 15 0 15 -10 0 -10 3 0 15 8 10 9 15 2 15 -6 0 -9 7 -6 15 4 8
10 12 15 9 5 -3 9 0 9 6 0 8 6 8 20 0 15 -8 20 -8 20 2 0 9 3 9 10 -2 7 -11
10 -11 10 -2 0 9 5 10 19 2 14 -7 21 -6 24 3 4 9 6 9 6 0 1 -7 6 -13 12 -13 5
0 7 5 3 11 -5 8 -1 8 13 0 11 -6 23 -8 26 -4 4 3 13 0 22 -7 13 -11 14 -10 9
6 -6 16 -5 17 7 6 16 -14 33 -16 24 -2 -3 6 1 7 9 4 9 -3 13 -10 10 -15 -3 -5
2 -6 10 -3 9 3 14 10 11 14 -3 5 4 6 15 3 11 -3 17 -9 14 -14 -3 -5 7 -4 22 1
21 8 29 8 36 -2 6 -11 8 -11 8 0 0 7 5 10 10 7 6 -3 10 0 10 7 0 8 5 6 11 -5
8 -14 14 -16 25 -6 11 9 14 9 14 -1 0 -10 3 -10 15 0 11 9 15 9 15 1 0 -8 5
-9 19 -2 10 6 21 7 25 4 10 -11 37 -12 30 -2 -3 5 -1 9 5 9 5 0 11 -5 13 -12
3 -7 9 -8 18 -3 19 12 51 14 44 3 -7 -11 3 -10 28 3 17 9 20 9 16 -2 -4 -9 2
-14 17 -14 15 0 20 4 15 10 -6 7 -2 11 10 11 10 0 17 -3 14 -7 -2 -4 3 -10 12
-13 8 -3 13 -2 10 3 -7 11 14 20 32 14 6 -3 9 -9 6 -15 -4 -6 2 -5 15 1 16 9
21 9 22 -1 0 -7 4 -4 9 7 8 18 9 18 10 -5 2 -20 3 -21 7 -6 4 15 7 16 14 5 7
-12 9 -12 9 0 0 11 3 11 15 1 8 -7 15 -8 15 -3 0 9 69 8 96 -1 6 -2 17 0 25 4
9 6 21 3 33 -8 11 -10 16 -11 11 -3 -6 10 -2 12 15 6 16 -5 20 -4 15 5 -5 9
-3 9 11 2 11 -5 27 -8 37 -7 9 2 17 -1 17 -7 0 -7 4 -7 13 -1 8 7 22 -2 47
-31 19 -23 26 -35 15 -27 -11 8 -5 0 13 -18 17 -18 32 -36 32 -42 0 -5 7 -9
16 -9 8 0 13 -3 11 -7 -7 -11 19 -33 29 -25 4 4 4 2 0 -5 -3 -6 -2 -14 4 -18
6 -4 7 -11 4 -17 -5 -8 -1 -9 10 -5 9 4 15 3 11 -2 -3 -6 3 -14 12 -20 10 -6
14 -11 10 -11 -4 0 -2 -6 5 -14 7 -8 16 -12 21 -9 4 2 7 -3 7 -12 0 -18 45
-67 53 -58 3 3 3 -6 0 -19 -3 -16 -2 -19 5 -10 7 11 11 9 15 -8 4 -14 10 -19
18 -14 9 5 10 2 6 -9 -4 -12 -1 -17 10 -17 9 0 13 -3 10 -6 -4 -4 2 -15 14
-25 14 -12 16 -18 7 -22 -7 -3 -3 -6 10 -6 13 -1 21 -5 18 -9 -3 -5 4 -15 15
-22 10 -8 19 -19 19 -25 0 -6 11 -18 24 -28 13 -10 29 -31 36 -47 8 -18 17
-27 26 -23 10 4 12 0 8 -11 -4 -10 0 -18 10 -22 9 -3 16 -11 16 -16 0 -6 13
-24 30 -39 16 -16 27 -29 23 -29 -4 0 3 -7 15 -16 12 -8 20 -19 17 -24 -3 -4
2 -11 11 -14 8 -3 12 -11 9 -16 -4 -6 -3 -10 2 -9 19 3 33 -2 33 -12 0 -5 -5
-7 -12 -3 -7 4 -8 3 -4 -4 4 -7 14 -12 22 -12 8 0 13 -4 10 -8 -3 -5 6 -16 20
-26 13 -11 24 -27 24 -37 0 -17 11 -24 33 -20 5 1 6 -3 2 -9 -3 -5 1 -13 10
-16 13 -6 14 -8 3 -15 -10 -7 -9 -9 5 -9 10 0 21 -8 24 -17 10 -25 50 -63 57
-55 4 3 4 -1 0 -11 -4 -12 -1 -17 10 -17 9 0 16 -6 16 -14 0 -7 21 -35 48 -61
26 -27 40 -45 32 -41 -8 4 -4 -2 9 -13 13 -12 20 -21 17 -21 -4 0 -1 -6 6 -14
7 -8 15 -12 18 -11 4 2 12 -6 20 -18 12 -21 12 -21 -6 -7 -18 14 -18 14 -5 -2
7 -10 20 -18 27 -18 8 0 14 -6 14 -13 0 -7 9 -19 19 -27 11 -7 18 -17 16 -21
-3 -3 7 -15 20 -25 14 -10 25 -27 25 -38 0 -11 3 -17 6 -13 8 7 34 -17 34 -32
0 -6 5 -11 10 -11 6 0 10 -6 10 -14 0 -7 8 -20 18 -27 16 -13 16 -13 2 6 -14
19 -14 19 3 6 9 -7 17 -21 17 -31 0 -10 8 -24 18 -31 16 -13 16 -13 2 6 -14
19 -14 19 3 6 9 -7 17 -20 17 -27 0 -8 5 -14 11 -14 5 0 7 -4 4 -10 -3 -5 0
-10 8 -10 8 0 21 -8 28 -17 12 -16 12 -17 -1 -8 -10 6 -9 4 2 -6 9 -9 14 -19
11 -23 -4 -3 1 -6 11 -6 9 0 14 -4 11 -10 -3 -5 -1 -10 4 -10 6 0 11 -7 11
-16 0 -10 6 -14 14 -11 10 4 13 0 11 -14 -2 -11 0 -17 4 -15 4 3 14 -6 21 -20
10 -18 16 -21 22 -12 5 9 8 5 8 -10 0 -15 4 -21 12 -16 8 5 9 2 5 -10 -4 -10
-3 -15 3 -11 6 3 13 -1 16 -9 3 -9 13 -16 22 -16 8 0 13 -3 9 -6 -8 -8 16 -33
26 -27 4 2 7 -3 7 -11 0 -10 9 -16 22 -16 12 0 19 -3 15 -6 -7 -8 17 -34 32
-34 6 0 11 -7 11 -16 0 -8 4 -12 10 -9 5 3 10 -1 10 -10 0 -11 5 -15 16 -11 8
3 12 2 9 -4 -6 -9 8 -14 28 -11 4 0 7 -6 7 -14 0 -9 12 -20 26 -25 15 -6 22
-14 18 -22 -4 -6 -3 -8 3 -5 6 4 23 -6 39 -21 15 -15 24 -20 20 -12 -4 9 -2 8
7 -2 8 -10 20 -18 26 -18 7 0 9 -5 5 -12 -5 -7 -3 -8 5 -3 8 4 21 -2 32 -14
11 -12 24 -19 30 -16 5 4 9 -1 9 -10 0 -9 4 -13 10 -10 6 3 10 0 10 -7 0 -9 3
-9 10 2 6 10 10 11 10 3 0 -7 7 -13 16 -13 10 0 14 -6 11 -14 -5 -11 0 -13 23
-6 20 6 27 5 24 -3 -6 -18 41 -37 57 -23 9 8 10 8 5 -1 -5 -9 0 -13 14 -13 12
0 18 -5 15 -10 -3 -6 3 -10 15 -10 14 0 19 4 14 12 -4 7 2 4 14 -6 12 -11 22
-16 22 -11 0 4 12 -1 27 -10 25 -17 26 -17 20 1 -6 17 -6 17 5 3 7 -9 23 -15
36 -14 12 1 22 -2 22 -7 0 -5 10 -3 23 3 19 11 21 11 9 -3 -10 -13 -10 -18 -1
-24 8 -4 9 -3 5 4 -10 16 36 16 53 0 11 -10 13 -10 7 0 -8 14 10 17 19 3 3 -6
17 -6 35 -1 21 6 30 5 30 -3 0 -8 3 -8 11 0 8 8 20 8 35 3 15 -6 24 -5 28 3 3
8 5 8 5 -2 1 -11 4 -11 18 0 11 10 14 10 9 1 -9 -15 -1 -15 26 -1 18 10 20 9
14 -7 -6 -15 -5 -17 5 -7 17 17 32 17 23 1 -4 -7 3 -4 16 7 13 11 20 14 15 6
-6 -11 -4 -13 8 -8 9 3 19 2 22 -3 4 -6 13 -7 24 -1 10 6 23 6 31 1 8 -5 22
-4 32 1 14 7 20 6 25 -6 3 -9 9 -12 12 -7 9 15 46 19 43 5 -1 -7 2 -13 8 -13
5 0 10 7 10 15 0 13 4 14 34 1 28 -12 34 -12 30 -1 -4 9 1 12 13 10 10 -2 24
-4 31 -4 7 -1 10 -5 7 -11 -3 -6 1 -7 9 -4 9 3 14 9 12 13 -3 4 4 7 14 7 10 0
16 -6 13 -13 -4 -9 0 -11 11 -7 9 3 14 10 11 14 -3 5 4 6 16 3 16 -5 18 -8 7
-15 -8 -6 -4 -7 12 -2 36 11 120 11 120 0 0 -5 9 -1 21 10 11 10 20 14 19 9
-6 -29 1 -38 15 -19 8 11 14 14 15 6 0 -10 5 -10 20 -2 14 8 20 8 20 0 0 -7 7
-7 21 1 13 7 19 7 15 1 -4 -7 4 -9 21 -8 16 2 37 -1 48 -7 18 -9 19 -9 6 7
-13 15 -12 16 14 6 22 -8 30 -8 37 2 4 8 8 9 8 2 0 -6 18 -11 44 -11 24 0 49
-4 56 -8 9 -5 11 -4 6 3 -4 7 -2 12 3 12 18 0 12 47 -6 54 -13 5 -14 9 -5 15
9 5 7 13 -9 27 -14 12 -19 13 -14 4 7 -13 6 -13 -7 -2 -12 9 -18 10 -23 2 -5
-8 -11 -8 -21 1 -11 9 -14 9 -14 0 0 -7 -5 -9 -12 -4 -19 11 -37 12 -44 2 -4
-6 -10 -6 -17 0 -18 14 -29 14 -38 -1 -7 -11 -11 -10 -18 1 -8 13 -12 13 -27
0 -10 -8 -15 -9 -11 -2 5 7 1 12 -10 12 -10 0 -30 2 -45 4 -16 2 -28 0 -28 -6
0 -5 -7 -4 -15 3 -12 10 -15 10 -15 -1 0 -12 -2 -12 -9 0 -5 8 -22 15 -37 17
-21 2 -25 1 -14 -6 9 -6 10 -10 3 -10 -6 0 -14 4 -17 9 -4 5 -17 8 -31 6 -14
-1 -25 3 -25 9 0 6 -5 4 -10 -4 -8 -12 -10 -12 -10 -1 0 9 -7 11 -21 8 -16 -4
-19 -2 -14 11 5 14 4 14 -6 5 -10 -10 -17 -9 -33 5 -11 9 -16 12 -13 5 4 -6 3
-14 -3 -18 -5 -3 -10 -1 -10 5 0 6 -4 8 -10 5 -5 -3 -10 -2 -10 3 0 6 -13 9
-29 8 -17 -1 -28 1 -25 6 3 4 -7 10 -21 14 -15 4 -22 11 -18 18 4 6 -1 5 -10
-3 -11 -9 -17 -10 -17 -2 0 6 -9 11 -20 11 -11 0 -20 5 -20 10 0 6 -7 10 -16
10 -9 0 -12 5 -8 12 4 6 3 8 -4 5 -14 -9 -43 3 -36 14 3 5 -2 9 -12 9 -9 0
-25 10 -35 22 -11 11 -19 18 -19 13 0 -4 -9 4 -20 18 -11 13 -32 28 -47 32
-19 4 -23 9 -14 15 10 6 8 9 -8 15 -12 3 -19 11 -16 16 3 5 -1 6 -9 3 -9 -3
-16 -1 -16 6 0 14 -19 34 -42 43 -10 3 -18 14 -18 22 0 9 -5 13 -10 10 -6 -3
-10 -1 -10 5 0 6 -4 8 -10 5 -5 -3 -10 -2 -10 4 0 6 -11 21 -25 35 -14 14 -25
23 -25 20 0 -3 -6 1 -14 8 -8 7 -12 16 -9 21 4 7 -12 11 -30 8 -5 -1 -6 3 -2
9 3 5 1 10 -5 10 -6 0 -8 5 -4 12 5 8 2 9 -9 5 -16 -6 -22 3 -18 26 1 5 -3 6
-9 2 -5 -3 -10 -1 -10 4 0 6 -6 11 -14 11 -19 0 -47 40 -39 54 4 6 0 5 -9 -2
-14 -11 -18 -9 -29 17 -7 16 -17 27 -21 25 -4 -3 -8 0 -8 6 0 6 -5 8 -10 5 -9
-5 -14 8 -7 19 1 3 -14 16 -33 29 -19 13 -33 30 -32 38 2 8 0 11 -3 7 -4 -4
-16 4 -27 17 -11 14 -26 25 -33 25 -8 0 -20 9 -28 20 -8 11 -17 17 -21 13 -4
-4 -4 0 0 10 4 12 1 17 -11 17 -9 0 -13 5 -10 10 3 6 -1 10 -9 10 -9 0 -16 7
-16 16 0 8 -3 13 -7 11 -11 -7 -33 19 -25 28 4 4 3 6 -3 4 -5 -1 -18 1 -28 6
-15 6 -15 10 -5 23 9 11 9 13 1 9 -6 -4 -14 -3 -18 3 -4 6 -11 8 -16 5 -5 -4
-6 2 -2 12 3 10 3 15 -2 11 -4 -4 -21 7 -38 25 -16 18 -34 31 -38 30 -5 -2 -5
5 -2 15 3 9 3 14 -2 10 -9 -9 -35 16 -35 33 0 7 -3 10 -6 6 -8 -7 -48 32 -57
56 -3 9 -14 17 -22 17 -9 0 -14 3 -12 8 6 10 -30 42 -39 34 -4 -4 -4 -2 -1 4
4 6 -1 20 -9 30 -9 10 -13 12 -9 4 4 -8 0 -6 -9 5 -31 40 -37 45 -48 39 -7 -5
-8 -2 -3 5 8 14 -29 54 -40 43 -4 -4 -6 -2 -5 3 4 19 -2 50 -7 38 -3 -10 -7
-10 -18 0 -7 7 -11 15 -8 20 2 4 -4 7 -14 7 -15 0 -16 2 -3 10 9 6 10 10 3 10
-7 0 -25 12 -40 27 -15 14 -21 23 -13 18 8 -4 3 4 -12 17 -15 14 -24 28 -21
32 4 4 0 4 -10 0 -13 -5 -16 -2 -11 10 4 10 1 16 -9 16 -8 0 -17 9 -20 20 -3
11 -13 20 -24 20 -15 0 -16 2 -3 10 13 8 12 10 -4 10 -11 0 -17 3 -13 6 8 8
-18 34 -33 34 -6 0 -8 5 -5 10 3 6 1 10 -5 10 -6 0 -8 5 -5 10 6 9 -8 14 -28
11 -4 0 -6 2 -6 6 4 22 -3 33 -18 33 -15 0 -16 2 -3 10 13 8 12 10 -4 10 -12
0 -16 5 -12 16 3 8 2 13 -2 10 -5 -3 -14 4 -22 14 -8 10 -17 17 -22 14 -4 -3
-5 2 -2 10 4 11 0 16 -10 16 -9 0 -16 7 -16 15 0 8 -9 19 -20 25 -11 6 -20 15
-20 21 0 6 -14 24 -31 40 -17 16 -27 29 -23 29 5 0 1 5 -8 11 -10 5 -18 14
-18 19 0 6 -10 21 -22 35 -16 19 -24 22 -31 13 -6 -9 -7 -8 -3 5 4 12 -5 28
-27 48 -17 17 -25 27 -17 23 8 -4 4 4 -10 18 -14 13 -28 23 -31 21 -4 -1 -6 5
-5 15 0 9 -4 16 -11 15 -6 -2 -15 7 -19 20 -4 12 -15 29 -25 38 -10 9 -16 19
-12 23 3 3 -1 6 -10 6 -9 0 -19 5 -23 12 -5 7 -2 8 7 3 8 -4 5 1 -6 12 -11 11
-24 18 -30 15 -5 -3 -4 2 4 12 12 15 12 17 0 14 -8 -2 -13 2 -13 7 1 6 -7 19
-19 30 -11 11 -16 14 -12 6 5 -9 4 -12 -3 -7 -6 4 -8 14 -5 23 4 11 3 14 -5 9
-7 -4 -12 -1 -12 8 0 9 -6 16 -12 16 -21 0 -15 43 10 70 19 20 22 21 16 5 -7
-20 -6 -20 9 0 8 11 13 24 9 29 -3 5 3 6 14 2 10 -4 15 -4 12 0 -11 10 21 36
34 28 10 -6 10 -4 0 8 -11 14 -10 17 7 23 12 3 21 11 21 17 0 6 3 8 7 5 3 -4
17 6 31 21 14 15 29 26 34 25 4 -2 4 5 1 15 -3 9 -3 14 1 10 5 -4 19 5 32 19
13 14 28 22 35 17 8 -5 9 -3 4 6 -6 10 -4 12 10 6 14 -5 15 -4 7 7 -9 10 -7
16 7 27 11 7 22 11 25 9 7 -5 42 43 39 53 -2 4 4 5 12 2 10 -4 15 0 15 11 0
10 5 13 12 9 8 -5 9 -2 5 10 -6 14 -3 17 9 12 12 -5 15 -2 10 9 -3 9 -2 13 4
10 6 -3 10 -1 10 5 0 6 5 8 10 5 6 -3 10 1 10 10 0 9 5 13 11 10 6 -4 9 0 7
11 -2 11 2 18 10 16 6 -1 12 3 12 8 0 6 11 20 25 32 14 12 25 28 25 35 0 8 4
12 9 9 5 -3 11 4 14 15 4 13 10 18 18 13 8 -4 10 -3 5 4 -4 7 -1 12 6 12 9 0
9 3 -2 10 -13 8 -13 10 2 10 9 0 20 5 24 12 5 7 3 8 -6 3 -9 -5 -11 -4 -6 3 4
7 14 12 23 12 9 0 13 6 9 15 -3 8 -1 15 4 15 6 0 10 4 10 9 0 6 11 22 25 37
14 15 25 33 25 40 0 8 3 14 8 14 4 0 13 9 20 21 11 17 11 20 0 14 -7 -3 -5 0
5 8 9 8 17 19 17 26 0 6 8 11 18 12 14 0 14 2 -3 9 -17 7 -17 9 -2 9 10 1 17
9 17 22 0 13 4 18 12 13 8 -5 9 -2 5 9 -4 10 0 20 11 26 11 7 12 11 4 11 -7 0
-10 5 -7 10 4 6 10 8 14 6 4 -3 7 5 6 17 -1 12 4 28 12 35 7 8 11 18 8 23 -4
5 -2 9 4 9 6 0 8 7 5 15 -4 8 -1 15 6 15 6 0 8 4 5 10 -3 6 0 10 7 10 9 0 9 3
-2 10 -11 7 -12 10 -2 10 8 0 12 6 9 13 -2 6 3 18 12 25 14 12 14 13 -3 7 -19
-6 -19 -5 -1 15 13 14 14 20 5 20 -9 0 -7 5 6 16 10 8 14 13 7 9 -8 -4 -11 2
-8 17 3 13 10 25 15 26 7 3 7 9 -1 18 -9 11 -9 14 0 14 7 0 9 5 6 10 -4 6 1
24 9 41 11 22 12 28 2 20 -10 -8 -12 -6 -11 9 1 11 4 23 8 26 12 12 8 26 -5
18 -10 -6 -10 -5 -1 7 10 12 10 18 0 28 -10 11 -8 11 9 3 16 -9 21 -8 21 3 0
8 -4 12 -9 9 -4 -3 -9 0 -9 5 -1 6 -2 17 -3 24 -1 6 4 19 12 29 10 12 11 18 1
24 -8 4 -10 3 -5 -4 4 -7 2 -12 -3 -12 -14 0 -14 13 1 28 7 7 9 12 5 12 -4 0
-2 10 4 23 11 20 11 21 -4 9 -14 -12 -15 -10 -13 12 1 14 6 29 9 33 4 3 2 12
-3 18 -7 9 -7 21 0 39 8 22 7 26 -8 26 -16 1 -16 1 0 11 17 9 17 11 0 37 -9
14 -11 23 -4 19 6 -5 12 -4 12 2 0 6 -4 11 -8 11 -4 0 -8 9 -8 20 0 11 5 20
10 20 5 0 1 7 -10 15 -16 13 -17 16 -4 25 10 6 11 10 3 10 -7 0 -13 11 -13 25
0 14 -5 25 -11 25 -6 0 -9 9 -6 20 3 11 1 20 -5 20 -5 0 -7 4 -4 9 4 5 2 11
-3 13 -6 1 -12 17 -14 33 -2 17 -9 29 -15 28 -6 -2 -9 6 -7 17 2 11 -2 20 -8
20 -7 0 -6 4 3 10 13 8 12 10 -3 10 -10 0 -15 5 -12 10 3 6 2 10 -4 10 -5 0
-8 9 -6 20 2 11 -1 23 -7 26 -7 5 -8 2 -3 -6 5 -9 4 -11 -3 -6 -7 4 -12 18
-12 31 0 13 -5 27 -12 31 -7 5 -8 3 -3 -6 5 -8 4 -11 -3 -6 -6 4 -9 13 -5 21
3 8 0 15 -6 15 -6 0 -11 7 -11 15 0 9 -7 18 -16 22 -13 5 -13 7 -2 14 10 7 9
9 -4 9 -11 0 -18 8 -18 19 0 11 -9 27 -21 35 -13 9 -18 19 -14 27 6 8 4 10 -4
5 -8 -5 -14 0 -18 13 -3 11 -9 18 -14 15 -5 -3 -9 4 -9 16 0 12 -3 19 -7 17
-5 -3 -17 5 -28 16 -11 11 -13 16 -5 12 8 -4 6 1 -5 12 -11 11 -23 19 -27 16
-8 -4 -12 13 -8 32 1 5 -1 7 -5 3 -4 -4 -14 0 -22 8 -8 8 -19 12 -24 9 -5 -4
-6 1 -3 9 4 11 0 16 -10 16 -9 0 -21 9 -28 20 -7 11 -19 20 -26 20 -7 0 -15 7
-18 15 -4 8 -10 13 -14 10 -5 -3 -11 4 -15 14 -4 12 -12 18 -21 14 -8 -3 -14
1 -14 8 0 12 -2 12 -9 1 -6 -10 -10 -8 -15 10 -5 19 -8 20 -15 8 -8 -12 -11
-11 -18 5 -4 11 -12 20 -18 21 -23 3 -55 17 -55 25 0 5 -5 9 -12 9 -6 0 -20 8
-31 18 -11 9 -17 11 -13 5 10 -18 -10 -16 -28 3 -10 10 -16 11 -16 4 0 -7 -9
-2 -21 11 -11 13 -18 18 -14 11 8 -16 -30 -10 -53 9 -10 8 -25 15 -35 17 -9 1
-25 3 -34 5 -10 1 -20 5 -23 8 -10 12 -53 22 -46 10 5 -7 1 -9 -8 -5 -9 3 -16
11 -16 18 0 6 -5 4 -10 -4 -8 -13 -10 -13 -10 2 0 11 -5 15 -15 12 -8 -3 -20
-2 -27 2 -7 4 -31 9 -53 9 -47 2 -87 13 -81 23 2 4 -13 6 -35 5 -22 -1 -37 2
-35 6 3 4 -1 8 -9 8 -8 0 -12 -4 -9 -9 3 -4 0 -8 -5 -8 -6 0 -11 5 -11 11 0 6
-15 10 -32 9 -18 -1 -36 -1 -40 0 -5 1 -11 3 -15 4 -5 1 -14 5 -22 10 -11 7
-12 6 -6 -5 8 -12 6 -12 -8 0 -14 11 -17 11 -17 0 0 -11 -2 -11 -10 1 -5 8
-12 11 -16 8 -4 -4 -16 -3 -27 3 -13 7 -17 7 -13 1 3 -6 1 -14 -5 -18 -7 -4
-9 -3 -6 3 4 6 -1 17 -10 24 -14 12 -16 12 -11 -1 4 -11 0 -16 -12 -16 -12 0
-16 6 -12 16 4 12 2 13 -9 3 -14 -14 -33 -18 -25 -5 2 4 -4 8 -14 8 -10 0 -16
-4 -13 -9 3 -5 -2 -5 -13 0 -23 11 -45 10 -63 -1 -10 -6 -12 -5 -7 2 4 7 1 12
-8 12 -8 0 -18 -4 -21 -10 -4 -6 -13 -5 -26 3 -16 10 -21 9 -29 -3 -5 -8 -10
-10 -10 -5 0 15 -103 15 -112 1 -5 -7 -8 -7 -8 0 0 14 -80 15 -80 0 0 -8 -3
-8 -8 0 -9 14 -145 14 -154 0 -6 -8 -8 -8 -8 0 0 7 -35 10 -102 9 -57 -1 -108
2 -115 7 -6 5 -14 5 -17 0 -3 -4 -26 -7 -51 -5 -36 3 -45 1 -39 -9 6 -10 4
-10 -7 -2 -18 14 -52 14 -61 0 -5 -8 -8 -7 -8 2 0 6 -12 12 -26 12 -16 0 -23
-4 -18 -12 5 -7 3 -8 -7 -2 -21 13 -249 13 -249 0 0 -8 -3 -8 -8 -1 -10 15
-82 16 -82 2 0 -8 -3 -9 -8 -1 -9 14 -145 14 -154 0 -5 -7 -8 -7 -8 2 0 8 -9
11 -25 8 -13 -3 -27 0 -31 5 -3 5 -11 6 -17 2 -7 -4 -31 -7 -55 -5 -32 1 -41
-1 -36 -11 6 -9 4 -9 -7 -1 -18 14 -52 14 -61 0 -5 -8 -8 -7 -8 2 0 6 -12 12
-26 12 -17 0 -23 -4 -18 -12 6 -10 4 -10 -7 -2 -8 7 -27 11 -44 9 -16 -1 -35
2 -42 7 -6 5 -14 5 -17 0 -3 -4 -26 -7 -51 -5 -36 3 -45 1 -39 -9 6 -10 4 -10
-7 -2 -18 14 -52 14 -61 0 -5 -8 -8 -7 -8 2 0 6 -12 12 -26 12 -16 0 -23 -4
-18 -12 5 -7 3 -8 -7 -2 -19 12 -81 14 -95 3 -7 -6 -16 -4 -24 6 -7 8 -17 12
-24 8 -19 -13 -48 -14 -40 -2 4 8 1 8 -12 1 -11 -5 -30 -8 -44 -6 -14 1 -19 0
-12 -2 6 -3 12 -10 12 -15 0 -6 -10 -5 -22 2 -17 8 -20 8 -12 0 15 -17 54 -22
54 -8 0 7 4 6 10 -3 9 -13 11 -13 20 0 8 13 10 13 10 -2 0 -11 6 -15 20 -11
11 3 20 1 20 -5 0 -5 7 -13 16 -16 8 -3 13 -2 10 3 -3 4 8 8 23 7 16 -1 27 -4
25 -8 -2 -4 0 -9 6 -13 5 -3 10 -1 10 6 0 7 3 10 6 6 14 -14 -8 -26 -32 -17
-16 6 -23 6 -19 0 7 -11 -66 -7 -86 5 -12 8 -12 6 0 -8 13 -16 12 -17 -14 -7
-22 8 -30 8 -37 -2 -4 -7 -8 -8 -8 -2 0 6 -7 11 -15 11 -8 0 -15 -5 -15 -11 0
-6 -5 -4 -10 4 -5 8 -10 10 -10 5 0 -6 -10 -11 -22 -12 -11 -1 -25 -8 -29 -15
-6 -9 -9 -10 -9 -1 0 7 -12 1 -26 -12 -16 -14 -23 -29 -18 -36 5 -8 2 -11 -7
-7 -11 4 -14 -5 -15 -36 -3 -90 -7 -106 -23 -93 -10 8 -13 8 -8 1 4 -7 0 -15
-9 -18 -10 -4 -13 -2 -8 6 5 8 2 9 -12 3 -10 -4 -28 -8 -39 -8 -11 -1 -26 -8
-33 -16 -8 -9 -11 -11 -8 -5 3 7 -1 15 -10 18 -8 3 -13 2 -9 -3 3 -5 -10 -8
-27 -7 -18 1 -48 -7 -66 -16 -18 -10 -39 -18 -46 -18 -7 0 -21 -10 -30 -22
-12 -16 -16 -18 -12 -6 4 15 2 16 -14 6 -10 -7 -17 -14 -15 -18 5 -8 -22 -30
-29 -23 -3 4 -6 1 -6 -6 0 -7 -4 -10 -9 -7 -4 3 -14 -7 -20 -21 -10 -22 -14
-24 -22 -12 -6 10 -8 4 -4 -18 3 -18 2 -33 -3 -33 -5 0 -7 -13 -4 -30 2 -16 9
-30 14 -30 6 0 4 -8 -3 -17 -8 -9 -9 -14 -3 -10 6 3 16 -5 23 -20 11 -25 11
-25 -6 -13 -10 7 -6 1 10 -14 15 -15 27 -33 27 -41 0 -8 5 -15 10 -15 6 0 10
-7 10 -16 0 -8 5 -12 10 -9 9 6 14 -8 11 -27 -1 -7 14 -12 31 -9 4 0 5 -6 1
-15 -4 -10 2 -17 16 -21 11 -3 19 -9 16 -13 -3 -5 -2 -11 3 -14 4 -2 14 4 21
16 7 11 8 17 2 13 -15 -9 -14 8 2 24 7 9 7 11 1 8 -18 -10 -25 21 -9 37 11 11
12 15 2 19 -9 3 -9 7 0 18 6 8 13 18 15 24 1 5 6 9 10 8 5 -2 7 2 5 9 -1 6 11
13 26 14 16 2 36 9 45 16 13 11 14 11 7 -2 -8 -13 -7 -13 8 -1 15 12 21 9 18
-11 0 -4 7 -4 16 -1 10 4 14 2 9 -5 -3 -6 -1 -14 5 -18 7 -4 9 -3 6 3 -4 6 0
13 8 17 8 3 15 0 15 -6 0 -6 3 -8 7 -5 3 4 15 0 24 -9 10 -9 29 -18 41 -19 13
-1 26 -3 30 -4 4 0 4 -9 1 -18 -6 -15 -4 -16 9 -5 11 9 18 10 23 2 3 -6 12 -7
18 -3 7 4 5 -2 -3 -12 -14 -17 -13 -18 8 -13 17 5 22 2 22 -13 0 -10 5 -19 11
-19 5 0 7 6 3 13 -5 8 -2 8 9 -2 9 -7 17 -20 17 -27 0 -8 5 -14 12 -14 6 0 8
-3 5 -7 -4 -3 1 -12 11 -20 10 -9 11 -11 2 -7 -13 7 -13 5 -1 -9 7 -9 18 -14
23 -11 6 4 5 -3 -1 -14 -7 -14 -8 -23 -1 -27 15 -9 13 -38 -2 -29 -7 4 -4 -2
6 -14 12 -14 15 -22 7 -22 -7 0 -11 -6 -8 -12 2 -7 0 -21 -5 -30 -6 -13 -5
-18 4 -18 7 0 2 -10 -12 -21 -14 -11 -18 -17 -10 -13 13 7 13 5 1 -9 -7 -9
-11 -17 -7 -17 3 0 -3 -9 -14 -20 -11 -11 -25 -20 -31 -20 -8 0 -7 -5 1 -15
11 -13 10 -14 -3 -10 -8 4 -18 1 -22 -4 -3 -6 -11 -9 -16 -6 -5 4 -12 -1 -15
-9 -3 -9 -10 -16 -16 -16 -5 0 -6 6 -3 13 4 6 -1 3 -10 -8 -9 -11 -19 -20 -23
-20 -4 0 -6 -3 -5 -7 2 -4 -9 -3 -23 2 -14 6 -23 6 -20 1 3 -4 -6 -13 -19 -19
-19 -9 -25 -9 -25 1 0 8 -3 8 -8 2 -4 -6 -16 -11 -27 -10 -11 0 -23 -4 -27
-10 -5 -6 -8 -4 -8 4 0 11 -4 9 -15 -5 -8 -10 -15 -14 -14 -9 3 23 -2 26 -17
10 -15 -15 -18 -15 -41 1 -14 9 -23 12 -19 6 10 -17 -42 -20 -60 -3 -9 9 -14
11 -10 4 4 -8 -1 -11 -14 -10 -11 1 -20 4 -20 8 0 4 -8 6 -17 4 -10 -1 -27 5
-38 14 -18 15 -19 15 -7 -1 11 -14 11 -16 -7 -11 -12 3 -18 10 -14 16 4 7 0 8
-12 3 -10 -4 -28 0 -43 10 -17 11 -22 12 -17 3 6 -11 5 -12 -6 -1 -7 6 -22 12
-32 12 -11 0 -26 8 -34 18 -8 9 -11 11 -7 3 8 -16 -51 15 -76 39 -8 9 -11 10
-6 3 14 -22 -1 -15 -29 12 -14 14 -25 22 -25 18 0 -4 -7 0 -15 11 -8 10 -19
15 -26 10 -7 -4 -10 -3 -5 4 8 13 -28 35 -39 24 -5 -4 -5 -1 -1 6 4 6 2 12 -4
12 -6 0 -9 4 -5 9 3 6 -4 8 -15 6 -12 -2 -20 1 -20 9 0 7 -10 21 -22 32 -22
19 -23 19 -8 -1 15 -20 14 -20 -8 -1 -12 11 -22 25 -22 33 0 8 -4 12 -9 9 -5
-3 -24 11 -42 32 -18 20 -37 36 -42 34 -5 -1 -6 2 -2 8 3 5 1 10 -6 10 -7 0
-10 3 -6 6 9 9 -19 34 -40 35 -10 0 -13 3 -6 6 10 3 10 7 0 18 -7 7 -15 11
-20 8 -4 -2 -7 -1 -6 4 1 4 1 16 0 27 -1 15 -4 16 -16 6 -13 -11 -14 -10 -9 5
5 13 4 16 -4 11 -7 -4 -12 -1 -12 8 0 8 -8 20 -17 25 -10 6 -15 11 -10 11 4 0
-6 14 -23 31 -16 18 -30 38 -30 45 0 8 -9 19 -20 26 -11 7 -20 17 -20 22 0 5
-8 15 -17 23 -10 8 -12 12 -5 8 6 -3 12 -1 12 4 0 10 -13 15 -32 12 -4 0 -5 9
-3 20 3 15 0 19 -10 15 -9 -3 -12 0 -9 9 4 9 -1 12 -13 10 -10 -2 -22 -4 -26
-4 -5 -1 -5 -5 -2 -11 3 -5 1 -10 -5 -10 -6 0 -8 -5 -4 -12 5 -8 2 -9 -12 -4
-10 4 -15 4 -11 0 4 -4 -5 -22 -19 -41 -14 -18 -22 -33 -18 -33 3 0 1 -7 -6
-15 -11 -13 -10 -14 6 -8 15 5 17 4 8 -8 -13 -17 -26 -101 -14 -94 5 3 5 -7 1
-21 -4 -15 -4 -51 -1 -80 3 -31 2 -54 -3 -54 -6 0 -6 -5 -1 -12 5 -7 9 -26 8
-43 -1 -17 6 -35 15 -42 15 -12 14 -13 -1 -7 -17 6 -19 -10 -5 -33 5 -7 6 -17
2 -22 -3 -5 0 -13 6 -17 8 -5 9 -3 4 6 -5 9 -4 11 4 6 8 -5 9 -12 3 -19 -5 -7
-11 -17 -13 -24 -3 -8 -10 -7 -24 4 -17 13 -17 15 -2 9 11 -3 16 -2 12 4 -3 6
-16 10 -28 10 -18 0 -19 2 -7 10 12 8 11 10 -7 10 -13 0 -23 6 -23 14 0 8 -7
17 -16 20 -8 3 -12 10 -9 16 3 5 0 7 -8 4 -8 -3 -18 0 -23 7 -5 8 -3 10 6 4 9
-5 11 -4 6 3 -4 7 -14 12 -22 12 -8 0 -14 7 -14 16 0 8 -4 12 -10 9 -5 -3 -10
-2 -10 2 0 5 -7 18 -16 29 -8 10 -13 13 -9 7 3 -7 4 -13 0 -13 -3 0 -10 11
-15 25 -5 14 -17 25 -27 25 -15 0 -16 2 -3 10 13 8 12 10 -4 10 -11 0 -17 3
-13 6 8 8 -18 34 -35 34 -10 0 -9 3 2 10 13 9 13 10 0 11 -8 1 -19 0 -25 -1
-5 -1 -7 2 -3 6 4 4 0 13 -10 21 -10 9 -11 11 -2 7 13 -7 13 -5 1 9 -7 9 -17
14 -22 11 -5 -3 -6 2 -3 10 4 10 1 16 -9 16 -8 0 -21 8 -28 18 -13 16 -13 16
6 2 19 -15 19 -15 0 11 -11 15 -26 24 -33 22 -8 -4 -10 0 -6 11 4 10 0 18 -10
22 -9 3 -16 12 -16 20 0 8 -5 14 -11 14 -5 0 -7 5 -4 10 3 6 1 10 -5 10 -6 0
-9 4 -6 9 3 5 -4 11 -16 14 -12 4 -19 9 -16 13 4 3 -8 20 -25 37 -19 18 -24
28 -14 24 16 -6 16 -3 -3 23 -12 17 -24 30 -27 30 -3 0 1 -8 8 -17 13 -16 12
-17 -4 -4 -9 8 -15 16 -12 19 2 3 -5 20 -16 39 -11 18 -17 33 -12 34 4 0 -2 4
-14 9 -13 6 -23 18 -23 30 0 11 -5 20 -11 20 -5 0 -7 5 -4 10 3 6 2 10 -4 10
-6 0 -15 10 -22 21 -9 17 -8 20 3 14 7 -3 4 2 -8 12 -11 10 -18 25 -16 32 3
10 0 12 -12 8 -14 -6 -15 -3 -5 14 8 15 8 19 0 15 -11 -7 -15 6 -12 33 2 7 -2
10 -8 6 -6 -3 -11 -1 -11 5 0 6 -5 8 -12 4 -7 -4 -8 -3 -4 4 4 6 -1 23 -10 37
-9 14 -13 25 -9 25 4 0 2 7 -5 15 -6 8 -9 19 -5 25 3 5 -1 10 -10 10 -9 0 -14
4 -11 9 8 13 -4 42 -15 36 -4 -3 -6 4 -4 15 3 13 -1 20 -13 20 -12 0 -13 3 -4
12 15 15 15 29 0 26 -7 -2 -12 6 -12 17 -1 11 -8 27 -16 35 -9 8 -10 11 -3 6
10 -6 12 -4 7 8 -3 9 -10 16 -15 16 -5 0 -9 11 -9 25 0 14 -6 25 -12 25 -10 0
-10 2 0 9 11 6 10 10 -4 15 -16 6 -16 8 -4 16 8 6 10 10 4 10 -7 0 -15 7 -18
16 -3 8 -2 12 4 9 6 -3 10 -1 10 4 0 6 -8 11 -17 11 -15 0 -16 2 -3 10 12 8
12 10 -5 10 -15 0 -17 2 -6 9 9 6 10 11 2 15 -6 4 -11 12 -11 17 0 6 5 7 12 3
7 -4 8 -3 4 4 -4 7 -15 12 -24 12 -15 0 -15 2 -2 10 9 6 11 13 5 18 -5 4 -12
23 -13 42 -2 19 -9 41 -15 49 -9 12 -9 13 1 7 6 -4 12 -3 12 3 0 5 -4 11 -9
13 -5 2 -11 10 -13 18 -2 8 -7 18 -13 22 -5 4 -1 8 10 8 19 1 19 1 2 11 -14 8
-16 14 -6 25 9 11 8 14 -3 14 -10 0 -13 10 -12 30 1 17 -2 33 -7 36 -6 3 -5
11 2 20 8 10 8 14 0 14 -7 0 -9 9 -5 26 5 18 3 25 -4 20 -6 -3 -9 1 -7 11 1
10 8 17 15 15 6 -1 9 2 5 7 -3 6 -12 8 -20 5 -14 -6 -15 12 -2 33 4 6 3 15 -3
18 -8 5 -7 12 2 23 11 13 10 15 -5 9 -15 -5 -16 -4 -7 12 7 14 6 21 -3 24 -9
4 -9 6 1 6 6 1 12 6 12 12 0 5 -4 7 -10 4 -6 -4 -7 2 -1 17 10 28 4 50 -12 42
-7 -3 -3 2 7 10 20 16 20 16 0 16 -10 0 -15 4 -9 8 19 13 17 35 -2 28 -17 -6
-17 -5 0 8 16 12 16 14 2 20 -12 4 -13 10 -6 24 7 13 6 23 -2 32 -10 10 -8 12
6 7 17 -6 17 -5 3 15 -14 19 -14 23 2 35 9 7 13 13 7 12 -22 -3 -29 2 -15 11
10 6 11 10 3 10 -7 0 -13 5 -13 11 0 5 5 7 12 3 7 -4 8 -3 4 5 -12 19 -15 82
-4 75 6 -4 7 0 1 12 -11 22 -11 34 0 51 4 6 3 14 -2 17 -10 7 -9 25 2 43 4 6
3 14 -2 17 -10 7 -9 25 2 43 4 6 4 14 -1 17 -9 6 -8 78 2 94 3 6 2 14 -4 17
-8 5 -8 11 0 20 8 10 7 14 -2 18 -8 3 -5 6 7 7 19 1 19 1 2 11 -18 10 -18 11
0 26 10 8 12 12 6 8 -16 -8 -17 17 -2 32 8 8 7 13 -2 18 -8 6 -10 4 -4 -5 5
-8 4 -11 -3 -6 -6 4 -9 13 -6 21 4 8 9 13 13 10 4 -2 8 2 8 10 0 8 -4 12 -9 9
-15 -10 -4 30 12 44 13 11 13 11 -1 7 -10 -4 -16 0 -16 10 0 10 6 14 16 10 11
-4 10 0 -5 16 -10 12 -14 19 -8 16 7 -4 14 2 17 13 3 11 1 18 -4 14 -5 -3 -9
0 -9 5 0 6 3 11 8 11 4 0 6 26 6 57 -1 32 4 64 10 72 7 10 8 13 0 8 -7 -4 -11
5 -11 23 0 26 2 27 13 12 12 -15 12 -14 7 8 -3 14 -10 30 -15 37 -6 7 -4 14 3
19 8 4 9 3 5 -4 -4 -7 -3 -12 3 -12 6 0 8 12 4 32 -5 25 -3 30 8 23 11 -6 11
-5 2 5 -9 9 -9 19 -2 33 8 15 8 18 -1 12 -9 -6 -9 -3 -1 13 14 27 14 35 -1 26
-10 -6 -10 -4 -2 7 18 24 26 51 11 42 -6 -4 -4 5 6 21 14 21 16 30 6 42 -6 8
-7 14 -2 14 6 0 9 15 9 33 -1 17 3 35 8 39 7 5 5 8 -4 8 -13 0 -13 2 -1 9 19
12 25 51 8 51 -8 0 -8 3 2 9 8 6 12 20 9 39 -3 19 -1 29 6 25 5 -4 7 0 3 9 -3
9 0 21 6 28 9 10 9 11 -3 5 -11 -6 -10 -3 2 11 14 16 15 23 6 32 -8 8 -8 12
-1 12 17 0 24 28 8 33 -7 3 -21 -3 -30 -13z m25 0 c0 -5 -5 -10 -11 -10 -5 0
-7 5 -4 10 3 6 8 10 11 10 2 0 4 -4 4 -10z m-770 -3140 c0 -5 -2 -10 -4 -10
-3 0 -8 5 -11 10 -3 6 -1 10 4 10 6 0 11 -4 11 -10z m5114 2 c6 -10 59 -7 77
3 8 6 10 4 4 -4 -6 -10 -3 -11 14 -2 16 9 21 9 21 -1 0 -9 3 -9 10 2 5 8 10
10 10 3 0 -12 17 -12 38 0 7 5 19 2 28 -7 17 -17 28 -21 20 -7 -3 5 3 11 14
14 11 3 18 2 15 -2 -2 -4 14 -8 37 -9 22 -1 48 -8 56 -14 13 -10 14 -10 8 0
-4 6 -2 12 3 12 6 0 11 -6 11 -12 0 -9 4 -8 10 2 8 12 10 12 10 1 0 -10 3 -11
14 -2 10 9 16 8 26 -4 11 -13 15 -13 21 -3 7 10 9 10 9 1 0 -7 5 -13 11 -13 5
0 7 6 4 13 -4 6 0 4 8 -5 11 -14 16 -15 27 -5 10 9 11 9 6 -1 -6 -10 -1 -11
21 -7 23 5 25 4 13 -5 -12 -10 -11 -11 9 -6 14 3 32 0 40 -7 10 -8 13 -8 8 0
-5 7 0 9 13 6 11 -3 20 -9 20 -13 0 -5 11 -7 25 -5 15 1 29 -4 35 -14 6 -11 9
-12 10 -3 0 7 5 10 10 7 6 -4 8 -10 6 -14 -3 -4 1 -8 9 -8 8 0 11 5 8 11 -4 6
1 5 10 -2 9 -8 21 -11 26 -8 5 4 13 2 16 -4 4 -6 16 -8 28 -5 13 4 17 3 11 -2
-9 -6 -8 -11 2 -21 8 -7 14 -9 14 -3 0 11 61 -9 71 -23 4 -5 14 -6 23 -3 11 4
16 1 16 -10 0 -9 3 -14 6 -10 9 9 65 -14 58 -24 -3 -5 3 -6 12 -2 13 5 15 3 9
-8 -7 -12 -6 -12 11 1 10 8 16 11 12 6 -9 -11 19 -39 31 -31 5 3 13 0 17 -6 5
-8 2 -10 -7 -5 -8 4 -5 1 5 -8 10 -8 23 -13 27 -10 4 2 15 -7 24 -20 9 -14 25
-28 36 -31 11 -4 17 -11 14 -16 -4 -5 -1 -9 5 -9 6 0 8 -5 5 -10 -4 -6 -3 -10
2 -9 19 3 34 -2 29 -10 -3 -5 1 -12 10 -15 9 -3 12 -11 8 -18 -6 -10 -5 -10 8
0 13 10 15 9 13 -13 -2 -16 2 -25 11 -25 8 0 14 -5 14 -11 0 -5 4 -7 10 -4 6
3 7 -1 4 -9 -3 -9 -1 -16 6 -16 6 0 8 -4 5 -10 -3 -5 -1 -10 5 -10 6 0 8 -5 5
-10 -4 -6 -1 -9 6 -8 7 2 15 -6 17 -17 2 -11 16 -32 30 -47 14 -16 22 -28 17
-28 -4 0 0 -10 11 -22 16 -19 16 -20 1 -9 -15 12 -17 12 -11 -3 3 -9 12 -16
20 -16 8 0 14 -5 14 -11 0 -5 -5 -7 -11 -4 -6 4 -5 -2 3 -14 7 -12 16 -21 20
-21 4 0 5 -7 2 -15 -4 -8 -1 -15 5 -15 6 0 8 -7 4 -16 -3 -9 3 -21 16 -31 17
-12 20 -18 10 -29 -9 -11 -9 -14 1 -14 9 0 9 -4 -1 -16 -12 -15 -11 -16 11
-10 14 4 20 4 13 -1 -13 -9 -10 -49 3 -46 5 1 9 -23 9 -52 -1 -39 2 -51 10
-45 8 7 11 -1 9 -26 -2 -23 0 -32 8 -28 7 5 8 1 0 -12 -7 -12 -7 -25 -1 -36 6
-10 7 -23 4 -28 -3 -5 3 -13 12 -19 17 -10 17 -10 1 -11 -22 0 -24 -18 -3 -26
11 -5 12 -11 4 -25 -7 -13 -6 -19 1 -19 7 0 9 -8 5 -21 -5 -14 -2 -25 6 -30
12 -7 12 -9 0 -9 -10 0 -11 -3 -3 -13 7 -8 7 -18 2 -27 -14 -22 -12 -30 8 -24
15 5 15 5 0 -5 -18 -12 -13 -54 6 -45 6 3 3 -1 -6 -9 -13 -10 -15 -16 -6 -25
9 -9 8 -15 -6 -25 -17 -13 -17 -14 -2 -20 11 -5 15 -3 10 5 -5 7 -3 8 6 3 10
-6 10 -10 -3 -20 -12 -9 -14 -14 -5 -23 7 -7 8 -12 2 -12 -12 0 -12 -49 -1
-67 4 -6 2 -15 -4 -19 -8 -5 -9 -3 -4 6 5 9 4 11 -4 6 -9 -6 -9 -11 -1 -21 7
-9 7 -21 0 -40 -7 -20 -7 -31 1 -41 9 -11 8 -14 -4 -14 -9 0 -19 -5 -23 -12
-4 -6 -3 -8 4 -4 6 3 13 2 17 -4 3 -5 0 -10 -7 -10 -9 0 -9 -3 2 -10 12 -8 12
-10 -5 -10 -15 0 -17 -2 -6 -9 9 -6 10 -10 2 -16 -9 -5 -9 -10 -1 -20 8 -10 8
-15 -1 -21 -8 -5 -9 -3 -4 6 5 9 4 11 -3 6 -9 -5 -9 -13 -1 -28 9 -16 8 -19
-2 -13 -9 6 -10 3 -5 -10 6 -16 4 -16 -10 -4 -16 13 -16 12 -5 -8 9 -18 9 -23
-1 -23 -9 0 -9 -3 2 -10 11 -7 11 -10 2 -10 -7 0 -11 -4 -8 -9 9 -14 -5 -42
-18 -34 -6 3 -8 3 -4 -2 4 -4 3 -14 -3 -21 -7 -8 -7 -14 0 -19 7 -4 7 -11 -2
-19 -6 -8 -16 -11 -21 -8 -5 3 -6 0 -2 -6 10 -17 16 -53 8 -48 -9 5 -32 -20
-25 -28 4 -3 1 -6 -5 -6 -6 0 -9 -6 -6 -14 3 -8 -3 -23 -15 -32 -15 -13 -18
-22 -10 -36 7 -13 6 -16 -5 -12 -8 3 -17 0 -22 -7 -5 -8 -3 -10 7 -4 8 5 2 -7
-13 -27 -15 -19 -24 -38 -21 -42 4 -3 1 -6 -6 -6 -7 0 -9 -5 -5 -12 6 -10 4
-10 -8 0 -14 11 -16 10 -14 -5 2 -10 -4 -24 -13 -31 -12 -10 -13 -12 -1 -6 8
4 4 -4 -10 -18 -14 -13 -28 -23 -33 -20 -4 2 -7 0 -6 -5 4 -22 -2 -35 -15 -30
-10 4 -13 0 -11 -14 4 -18 2 -19 -12 -7 -11 8 -14 9 -10 1 5 -7 -1 -17 -13
-23 -11 -6 -18 -15 -16 -19 3 -4 -13 -18 -34 -30 -22 -12 -40 -26 -40 -31 0
-5 -7 -7 -15 -4 -8 4 -17 -1 -21 -9 -3 -9 -11 -14 -18 -11 -6 2 -21 -4 -33
-15 -15 -14 -23 -17 -26 -8 -3 7 -6 4 -6 -7 -1 -13 -6 -17 -21 -13 -11 3 -20
2 -20 -3 0 -4 -7 -11 -16 -14 -15 -6 -15 -4 -3 10 13 16 12 16 -8 4 -12 -8
-19 -19 -15 -25 3 -5 -2 -4 -11 4 -9 7 -17 10 -17 5 0 -5 -12 -15 -27 -21 -21
-10 -28 -10 -35 0 -7 11 -12 2 -9 -17 1 -5 -5 -4 -13 4 -13 10 -16 10 -16 -1
0 -11 -2 -11 -10 1 -5 8 -10 10 -10 3 0 -6 -11 -10 -25 -9 -13 2 -22 0 -20 -4
3 -4 -4 -10 -16 -13 -17 -5 -18 -3 -8 9 10 12 9 13 -5 8 -9 -3 -16 -11 -16
-16 0 -6 -6 -5 -15 2 -12 10 -15 10 -15 0 0 -7 -7 -10 -15 -7 -8 4 -17 1 -21
-4 -4 -8 -10 -7 -17 0 -7 7 -14 7 -24 0 -9 -9 -13 -8 -13 0 0 7 -5 9 -12 4
-18 -11 -58 -12 -58 -1 0 5 -5 6 -10 3 -6 -4 -8 -12 -4 -18 3 -7 -2 -3 -10 7
-15 19 -16 19 -16 2 0 -15 -3 -16 -15 -6 -12 10 -15 10 -16 -1 0 -10 -2 -11
-6 -1 -2 6 -9 12 -14 12 -6 0 -7 -6 -2 -12 4 -7 -6 -5 -21 6 -23 15 -28 15
-23 3 6 -16 -9 -17 -32 -3 -11 7 -13 5 -8 -8 4 -10 3 -15 -3 -11 -6 3 -10 14
-11 23 0 14 -2 14 -8 -2 -5 -14 -10 -16 -15 -8 -4 7 -12 12 -17 12 -6 0 -8 -4
-5 -9 4 -5 -3 -7 -14 -4 -11 3 -18 8 -16 12 3 4 -6 7 -19 7 -13 0 -21 -4 -19
-8 3 -5 10 -5 16 -2 6 4 8 2 5 -4 -4 -5 -16 -8 -27 -5 -11 3 -17 9 -14 14 7
12 -3 11 -27 -1 -10 -6 -19 -7 -19 -2 0 5 -10 8 -22 7 -13 -1 -31 2 -41 7 -12
6 -19 5 -23 -7 -3 -8 -10 -12 -15 -9 -5 3 -7 10 -4 15 4 5 -4 5 -19 -1 -19 -7
-29 -6 -39 5 -11 11 -17 11 -27 2 -10 -9 -14 -9 -17 1 -3 6 -11 12 -19 12 -9
0 -13 -5 -9 -12 4 -7 1 -6 -7 2 -14 16 -45 19 -66 6 -7 -4 -12 -4 -11 1 3 20
-2 23 -22 12 -15 -8 -19 -8 -15 0 5 7 -5 12 -26 13 -47 2 -51 3 -67 12 -10 7
-12 6 -6 -4 5 -9 0 -8 -15 3 -17 12 -28 13 -41 6 -15 -8 -17 -6 -12 7 5 13 3
15 -8 8 -16 -10 -44 -15 -35 -7 3 4 0 13 -7 21 -10 13 -9 14 2 7 10 -6 12 -4
6 6 -12 18 -13 79 -2 79 4 0 5 5 1 12 -9 15 -14 69 -5 64 3 -2 4 29 1 70 -3
46 -1 74 5 74 6 0 3 5 -5 10 -11 7 -11 10 -2 10 10 0 10 5 2 20 -9 16 -8 20 7
20 15 0 15 2 -3 15 -14 11 -15 14 -4 15 13 0 13 1 0 10 -12 8 -12 10 -1 10 11
0 11 3 1 15 -7 8 -8 15 -3 15 5 0 7 21 3 50 -6 44 -4 50 9 45 13 -5 14 -4 4 6
-15 15 -18 53 -3 44 6 -3 7 1 4 9 -3 9 -11 13 -16 10 -7 -4 -7 0 0 12 5 11 7
25 5 32 -3 7 1 20 9 29 11 14 11 16 -3 11 -12 -5 -15 -1 -11 18 2 13 8 22 11
19 13 -8 5 33 -10 51 -9 11 -9 15 -1 10 6 -4 12 -4 13 1 0 4 2 18 3 31 2 17
-1 21 -13 17 -13 -5 -13 -4 -4 6 10 10 10 16 0 28 -10 12 -9 14 4 9 10 -4 16
-1 16 8 0 9 -6 13 -16 9 -11 -4 -10 0 5 16 10 12 14 20 8 16 -7 -4 -11 5 -12
25 -1 24 2 28 8 18 6 -9 10 -10 10 -3 0 6 -4 15 -10 18 -5 3 -10 11 -10 16 0
6 5 7 10 4 17 -10 11 7 -7 22 -10 8 -13 12 -6 9 6 -4 14 -2 18 4 3 5 1 10 -5
10 -8 0 -8 6 0 20 8 14 8 20 0 20 -6 0 -8 5 -4 12 16 25 13 58 -4 59 -14 0
-13 2 3 9 11 5 14 9 8 9 -7 1 -13 6 -13 12 0 5 5 7 10 4 6 -3 10 -1 10 4 0 6
-5 11 -11 11 -8 0 -8 4 0 14 9 11 9 15 -1 18 -10 4 -10 8 1 21 9 11 10 17 2
17 -6 0 -11 5 -11 11 0 5 4 8 9 4 5 -3 13 0 17 6 4 7 3 9 -3 6 -18 -11 -21 40
-4 58 15 15 15 16 -2 9 -15 -5 -16 -3 -9 17 5 13 8 34 6 47 -3 16 0 21 8 16 7
-4 5 2 -4 13 -20 22 -23 33 -7 33 5 0 7 -6 3 -12 -4 -7 -3 -10 1 -5 5 4 9 18
10 31 0 19 -3 22 -12 15 -9 -8 -11 -5 -10 10 0 11 5 17 9 15 13 -8 9 21 -4 35
-9 10 -9 12 -1 7 15 -8 13 140 -2 164 -7 12 -6 13 6 3 12 -10 15 -8 15 7 0 10
-3 17 -7 14 -4 -2 -9 3 -12 11 -4 10 -1 12 11 9 14 -5 13 -3 -2 10 -11 9 -15
16 -9 16 6 0 13 20 15 45 2 25 0 45 -4 45 -5 0 -8 5 -8 11 0 6 6 7 13 2 6 -4
5 4 -5 19 -9 14 -13 29 -9 34 10 11 21 105 12 100 -4 -3 -7 4 -7 15 0 10 3 19
6 19 7 0 4 116 -4 129 -4 6 -1 11 6 11 9 0 9 3 -2 10 -8 5 -10 10 -5 10 6 0
11 9 11 20 0 11 -5 20 -10 20 -5 0 -1 7 10 16 10 8 13 12 5 8 -10 -5 -12 2 -8
35 2 23 0 44 -4 47 -5 3 -6 10 -3 16 4 6 7 24 6 39 0 16 5 29 11 29 7 0 6 4
-3 10 -13 8 -12 10 3 10 9 0 17 5 17 10 0 6 5 10 11 10 5 0 7 -6 4 -12 -4 -7
1 -4 9 6 12 15 16 16 16 5 0 -12 2 -12 9 0 5 7 14 10 20 7 6 -4 11 -3 11 3 0
6 6 8 14 5 8 -3 17 -1 21 5 9 16 48 14 40 -1 -4 -7 -1 -6 7 2 7 9 25 15 41 13
15 -1 25 2 23 6 -3 4 1 8 9 8 8 0 11 -5 8 -11 -4 -6 4 -2 16 8 22 20 22 20 16
0 -6 -16 -5 -17 7 -4 14 16 63 26 54 12 -3 -5 1 -9 9 -9 8 0 12 4 9 8 -2 4 2
10 8 12 20 8 26 8 32 -1z m-4139 -1642 c-3 -5 -2 -10 3 -10 5 0 12 -9 15 -20
3 -12 0 -20 -8 -20 -13 0 -27 45 -17 55 9 9 14 6 7 -5z m53 -30 c15 0 15 -2 2
-10 -15 -9 -30 4 -29 25 0 6 3 4 6 -2 2 -7 12 -13 21 -13z m1703 -1043 c-10
-9 -11 -8 -5 6 3 10 9 15 12 12 3 -3 0 -11 -7 -18z m-54 -123 c-3 -3 -12 -4
-19 -1 -8 3 -5 6 6 6 11 1 17 -2 13 -5z m619 -159 c1 -8 -2 -15 -7 -15 -5 0
-9 5 -9 11 0 5 -6 7 -12 3 -9 -5 -8 -2 1 9 15 19 24 16 27 -8z m-1239 -287
c-21 -14 -28 -9 -15 12 9 13 14 16 20 7 4 -6 2 -15 -5 -19z m820 -723 c0 -8
-4 -12 -9 -9 -5 3 -6 10 -3 15 9 13 12 11 12 -6z m5074 -512 c13 -16 12 -17
-3 -4 -17 13 -22 21 -14 21 2 0 10 -8 17 -17z m-3143 -608 c-3 -3 -9 2 -12 12
-6 14 -5 15 5 6 7 -7 10 -15 7 -18z"/>
<path d="M6565 4210 c-3 -6 1 -7 9 -4 18 7 21 14 7 14 -6 0 -13 -4 -16 -10z"/>
<path d="M5390 4039 c0 -5 5 -7 10 -4 6 3 10 8 10 11 0 2 -4 4 -10 4 -5 0 -10
-5 -10 -11z"/>
<path d="M2500 6106 c0 -2 8 -10 18 -17 15 -13 16 -12 3 4 -13 16 -21 21 -21
13z"/>
<path d="M4950 3361 c0 -6 4 -13 10 -16 6 -3 7 1 4 9 -7 18 -14 21 -14 7z"/>
<path d="M4980 2256 c0 -2 8 -10 18 -17 15 -13 16 -12 3 4 -13 16 -21 21 -21
13z"/>
<path d="M3376 1562 c-3 -5 1 -9 9 -9 8 0 15 4 15 9 0 4 -4 8 -9 8 -6 0 -12
-4 -15 -8z"/>
</g>
</svg>
