<svg xmlns="http://www.w3.org/2000/svg" width="150" height="150"><path fill-rule="evenodd" clip-rule="evenodd" fill="#294A7A" d="M63 27.3h46.8V97h-7.1V34.5H67v18.7H49.3V97h-7.2V48.2L63 27.4z"/><path fill-rule="evenodd" clip-rule="evenodd" fill="#B21620" d="M56.5 57.6h15v-8.8h12v22h-27z"/><path fill-rule="evenodd" clip-rule="evenodd" fill="#606060" d="M87.8 48.8h7.8v4.4h-7.8zM87.8 57.6h7.8V62h-7.8zM87.8 66.4h7.8v4.4h-7.8zM56.5 75.1h39.1v4.4H56.5zM56.5 83.9h39.1v4.4H56.5zM56.5 92.6h26.9V97H56.5z"/><path fill-rule="evenodd" clip-rule="evenodd" fill="#606060" d="M123.1 38.3c1.6 0 2.9.6 4 1.7a5.5 5.5 0 011.7 4v64.5H23.2V44c0-1.6.6-3 1.7-4 1-1.1 2.4-1.7 4-1.7h17.8L39.1 46h-8.2v54.8h90.2V46h-7.5v-7.7h9.5zM9.2 115.4v-1.8H59v.3c0 1.3.4 2.4 1.3 3.2.9 1 2 1.4 3.2 1.4h25.2c1.2 0 2.3-.5 3.2-1.4.9-.8 1.3-1.9 1.3-3.2v-.3h49.7v1.8c0 2.6-1 4.8-2.8 6.7a9.2 9.2 0 01-6.8 2.8H18.8c-2.7 0-5-1-6.8-2.8a9.2 9.2 0 01-2.8-6.7z"/></svg>