<svg xmlns="http://www.w3.org/2000/svg" width="150" height="150"><path fill-rule="evenodd" clip-rule="evenodd" fill="#294A7A" d="M49.3 63.3c0-1.4-.5-2.5-1.4-3.4-1-1-2.1-1.5-3.5-1.5-1.3 0-2.5.5-3.4 1.5-1 .9-1.4 2-1.4 3.4 0 1.3.4 2.5 1.4 3.4 1 1 2 1.4 3.4 1.4s2.5-.4 3.5-1.4c1-1 1.4-2 1.4-3.4zm26.8-33.6c7.6 0 15.3.6 22.9 1.9a5.2 5.2 0 013.7 2.9l7.6 15.4a22 22 0 001.8 2.7l4.5 5.1.7 1a9.5 9.5 0 011.5 6.6l-.4 3.3v.2l-.8 5.9v5h6.6V30.1h15.5v3.5l-7.5 7.6v68.1l7.5 7.5v12.5H87.9v-8h36.3V84.7h-6.6v7.1a2.8 2.8 0 01-2.7 2.9h-6.8c-.7 0-1.3-.3-1.8-.9-.6-.5-.9-1.2-.9-2v-5.5l-13.7.7c.5-.7.7-1.5.7-2.4v-22c0-1-.3-2-1-2.7a3.8 3.8 0 00-2.8-1.2H70.2c-2.6 0-4.9.6-6.8 1.8l-5.6 3.6-.2.2-.2.1a14.6 14.6 0 00-5.3 5.1c-.5 1-.8 2.6-.9 5v5.1a8.6 8.6 0 002 5.9h.1l.1.1 1.2 1.1-8-.4v5.6c0 .7-.3 1.4-.8 2-.5.5-1.1.7-1.8.8H37c-.7 0-1.3-.3-1.8-.9-.6-.5-.8-1.2-.9-2v-7H28v36.6h36.3v8H12.4V117l7.6-7.5V41.3l-7.6-7.6v-3.5H28v49.4h6.4v-5l-.8-5.8v-.2l-.3-3.3a9.5 9.5 0 012.2-7.6l4.5-5 1.8-2.8 7.6-15.4c.2-.5.5-1 1-1.4.6-.8 1.6-1.3 2.7-1.5 7.6-1.3 15.3-2 23-2zM76 47a553.7 553.7 0 0127.8.7L99.2 38a3.9 3.9 0 00-2.8-2.1 139.8 139.8 0 00-40.7 0l-1 .3c-.8.4-1.4 1-1.8 1.8l-4.7 10a474.5 474.5 0 0127.9-.8zm35 12.8c-1-1-2.1-1.5-3.5-1.5-1.3 0-2.4.5-3.4 1.5-1 .9-1.4 2-1.4 3.4 0 1.3.5 2.5 1.4 3.4 1 1 2.1 1.4 3.4 1.4 1.4 0 2.5-.4 3.5-1.4 1-1 1.4-2 1.4-3.4s-.5-2.5-1.4-3.4z"/><path fill-rule="evenodd" clip-rule="evenodd" fill="#B21620" d="M70.2 62.6h18.4v11.1h-8v6h8v5h-2.1-.1c-1.5 0-2.7.5-3.8 1.6-1 1-1.6 2.4-1.6 4 0 1.3.4 2.4 1.3 3.4v.1c1 1.3 1.6 3 1.7 5.1v30.5H68.2V99c0-2.1.5-3.8 1.6-5v-.2c.9-1 1.3-2.1 1.3-3.5 0-1.5-.5-2.8-1.6-4-1-1-2.3-1.5-3.8-1.5h-6c-1.4-.1-2.5-.7-3.4-1.7-.8-1-1.2-2.2-1.2-3.4h16.4v-5.9H55.1c0-2 1.2-3.9 3.7-5.6l6.8-4.3a7.8 7.8 0 014.6-1.2z"/></svg>