<svg xmlns="http://www.w3.org/2000/svg" width="150" height="150"><g fill-rule="evenodd" clip-rule="evenodd"><path fill="#333" d="M73.4 25.4zM9.7 85.3v.8-.8zM45 111.6v.7-.7zm88 .2v0zm-33.5-3.6l.1-.2v.2h-.1zM107 121l-.2-.2-.2-.2.4.4z"/><path fill="#B21620" d="M73.4 25.4l5.8 15.8 13.2-13.8-7 18.6 4.1-1.4h.2l15.7-5-15 13 3.4 1.2h.2l16.3 5.8-20.9 2.7-2 .3 1.1 21-12.8-17.2h-.2l-1-1.6-15.8 9.9 7.2-15.1-2.4-.6h-.3l-9-2 9-4h.2l2.8-1.2-2.2-2.2L52.8 38l15.7 6.3h.3l2.4 1 .3-2.7 1.9-17.2zm59.5 87v-.8a16.3 16.3 0 00-8-14.4 16.2 16.2 0 00-8.8-2.4c-4.7 0-8.7 1.6-12 4.9a16 16 0 00-4.5 8.3l-.1.2-.5-.4-1.2-1.2c-.9-1-1.6-2.4-2.3-4l-2.6-7c-1.2-3.9-.3-7.5 2.8-10.9l18-17.6c3.4-3.2 7.6-4.9 12.5-5l.3-.1h16v50.3h-9.6z"/><path fill="#606060" d="M61.9 104.2c-2.1 0-3.9.7-5.3 2.2a7.1 7.1 0 00-2.2 5.2c0 2.1.7 3.9 2.2 5.3.4.5.9.8 1.4 1.2 1.1.7 2.4 1 3.9 1 2 0 3.8-.7 5.2-2.2a7.2 7.2 0 002.2-5.3 7.2 7.2 0 00-2.2-5.2 7.1 7.1 0 00-5.2-2.2zm9.1-1.8a12.5 12.5 0 013.8 9.2c0 3.6-1.3 6.7-3.8 9.2a12.4 12.4 0 01-9.1 3.8c-3.6 0-6.7-1.3-9.2-3.8a12.5 12.5 0 01-3.8-9.2 12.5 12.5 0 013.8-9.2c2.5-2.5 5.6-3.7 9.2-3.7a12.4 12.4 0 019.1 3.7zm36.1 18.6l-.4-.4a12.5 12.5 0 01-3.6-8.6v-.4a14.3 14.3 0 01.2-2c.4-2.8 1.6-5.1 3.6-7.2 2.5-2.5 5.6-3.7 9.2-3.7a12.6 12.6 0 019.2 3.7 12.6 12.6 0 013.8 9.2c0 3.6-1.3 6.7-3.8 9.2a12.5 12.5 0 01-9.2 3.8h-.4a12.5 12.5 0 01-8.6-3.6zm9-16.8c-2 0-3.8.7-5.3 2.2a7.2 7.2 0 00-2.2 5.2c0 2.1.8 3.9 2.2 5.3.4.5 1 .8 1.4 1.2 1.2.7 2.4 1 3.9 1 2 0 3.8-.7 5.3-2.2a7.2 7.2 0 002.1-5.3 7.1 7.1 0 00-2.1-5.2 7.2 7.2 0 00-5.3-2.2z"/><path fill="#294A7A" d="M45 111.6v.7H9.7v-16h12.2v10.5l16.1-16v-.1l-16-16v10.6H9.7V62h11.7c4.1.2 7.4 1.8 10 4.8l9.2 9.9c2.4 2.2 4.8 3.8 7.4 4.6.8.3 1.7.5 2.5.6l27.8 3.9c2.5.4 4.3 1.3 5.2 2.8.8 1.1 1 2.6.7 4.4-.2 1.8-.5 3.6-.9 5.3l-.3 1.8-.9 3.9c-.6 1.8-1.9 3.2-3.7 4a15.8 15.8 0 00-4.6-8.3 16.2 16.2 0 00-12-4.9c-4.6 0-8.6 1.6-11.9 4.9a16.4 16.4 0 00-5 12z"/></g></svg>