<svg xmlns="http://www.w3.org/2000/svg" width="150" height="150"><path fill-rule="evenodd" clip-rule="evenodd" fill="#294A7A" d="M136.4 123.5H13.6V116h122.8z"/><path fill="#B21620" d="M108.2 82.5H41.8c-2.2 0-4.4 1.9-4 4 .6 3.6 3.4 11.7 6.5 14.4 4.4 3.7 19.5 8.4 23.8 5.2l3.6-2.7c2-1.5 5.2-1.5 7.2 0l3.6 2.7c4.2 3.1 18.9-1.3 23.1-5 3.2-2.6 6-11 6.6-14.6.4-2.1-1.7-4-4-4zm-41 12.2c-1 3.4-4.2 4.6-8.2 4.2-5.2-.4-8.9-2.8-8.6-6.6.2-1.5 4.7-2 8.6-1.7 4 .4 9 .8 8.1 4.1zm50.7-33H96.2c-.8 0-1.4-.6-1.4-1.4 0-.7.6-1.3 1.4-1.3h17.4a35.8 35.8 0 00-30.1-32.6 8.7 8.7 0 00-17.2 0 36 36 0 00-30.2 35.3h-4c-3.2 0-4.3 4.4-4.3 7 0 2.6 1 7 4.3 7h85.8c3.3 0 4.3-4.4 4.3-7 0-2.6-1-7-4.3-7zM91 98.9c-4 .4-7.2-.8-8.1-4.2-.9-3.3 4.1-3.7 8.1-4 4-.4 8.5.1 8.6 1.6.3 3.7-4.8 6.3-8.6 6.6z"/></svg>