<svg xmlns="http://www.w3.org/2000/svg" width="150" height="150"><path fill-rule="evenodd" clip-rule="evenodd" fill="#294A7A" d="M45.2 123.8l6.7-7.7h85v7.7H45.2zM25 116.1l7.7 7.7H13.1v-7.7H25z"/><path fill-rule="evenodd" clip-rule="evenodd" fill="#294A7A" d="M57 61.6a24.3 24.3 0 0117.7-7.4H75.9c6.5.3 12.1 2.8 16.8 7.4A24.2 24.2 0 01100 82c-.6 6-3 11-7.3 15.4-5 4.9-11 7.3-17.9 7.3-6.2 0-11.5-1.9-16.1-5.8l-2.6 2.6 1.8 1.8L39.2 125l-10-10L51 96.3l1.8 1.8 2.6-2.6a23.9 23.9 0 01-5.7-16v-2.6c.6-5.9 3-11 7.4-15.3zm17.8.4c-4.8 0-9 1.7-12.4 5.1a16.8 16.8 0 00-5.1 12.4c0 4.8 1.7 9 5.1 12.3C66 95.2 70 97 74.8 97c4.8 0 9-1.7 12.4-5 3.4-3.5 5.1-7.6 5.1-12.4 0-4.9-1.7-9-5.1-12.4a16.9 16.9 0 00-12.4-5z"/><path fill-rule="evenodd" clip-rule="evenodd" fill="#606060" d="M42.4 74c0-1.6-.6-3-1.8-4.1a5.7 5.7 0 00-4.2-1.8c-1.6 0-3 .6-4.2 1.8a5.6 5.6 0 00-1.7 4.1c0 1.7.6 3 1.7 4.2a5.7 5.7 0 004.2 1.8c1.7 0 3-.6 4.2-1.8a5.8 5.8 0 001.8-4.2zM75 38.8c-8.3 0-16.6.6-24.8 1.8-.5 0-1 .2-1.3.3-1 .5-1.7 1.2-2.2 2.2l-5.7 12a603.7 603.7 0 0119-.7c-2 1.3-4 2.8-5.7 4.6-5 5-7.8 10.8-8.4 17.5l-.1 3 .1 2.9c.4 3.8 1.4 7.4 3.2 10.6l-.7.5a116363 116363 0 00-21.7 18.7c-.5-.2-1-.5-1.4-.9-.7-.7-1-1.5-1-2.5V88l-1-7.2v-.2l-.5-4a11.5 11.5 0 012.7-9.2L31 61c.4-.4 1-1.3 1.8-2.6L24 56.8c-2-.5-3.2-1.7-3.7-3.5a9 9 0 01-.4-3c0-1 .6-1.5 1.6-1.6h9c1.7 0 2.3.9 2 2.3l-1 3.3 3.2.4 7.8-15.8 1.1-1.7c.9-1 2-1.6 3.4-1.9a167.3 167.3 0 0156 0 6.3 6.3 0 014.5 3.6l7.8 15.8 3.2-.3-1-3.4c-.4-1.4.2-2.2 2-2.3h8.9c1 0 1.6.6 1.6 1.6 0 .8 0 1.8-.3 3-.5 1.8-1.7 3-3.7 3.5l-8.8 1.6 1.7 2.6 5.5 6.3.9 1c1.6 2.4 2.2 5 1.8 8.2l-.4 4v.2l-1 7.2v21c0 .9-.4 1.7-1 2.4-.7.6-1.4 1-2.3 1h-8.3c-.9 0-1.6-.4-2.2-1-.7-.7-1-1.5-1-2.4v-6.8l-19 1 3.5-3c5-5 7.7-11 8.3-17.7a30.2 30.2 0 000-5.9A27.8 27.8 0 0095.4 59a30.2 30.2 0 00-5.8-4.6 664.7 664.7 0 0119.4.8L103.3 43c-.5-1-1.3-1.7-2.2-2.2l-1.2-.3c-8.3-1.2-16.6-1.8-24.9-1.8zm42.7 31a5.7 5.7 0 00-4.2-1.7c-1.6 0-3 .6-4.2 1.8a5.7 5.7 0 00-1.7 4.1c0 1.7.6 3 1.7 4.2a5.7 5.7 0 004.2 1.8c1.7 0 3-.6 4.2-1.8a5.7 5.7 0 001.7-4.2c0-1.6-.5-3-1.7-4.1z"/><path fill-rule="evenodd" clip-rule="evenodd" fill="#B21620" d="M60 82a15.8 15.8 0 010-5.1h6.3l5-12h.3l6.6 16 1.7-4h9.6a16 16 0 010 5.2h-6.2l-5 12H78l-6.7-16-1.7 4h-9.6z"/></svg>