<svg xmlns="http://www.w3.org/2000/svg" width="150" height="150"><path fill-rule="evenodd" clip-rule="evenodd" fill="#294A7A" d="M134.3 61.4V105c0 5.3-1.9 9.9-5.6 13.6a18.6 18.6 0 01-13.7 5.8H37c-5.3 0-9.9-2-13.6-5.8a18.6 18.6 0 01-5.7-13.6V63A32.3 32.3 0 0118 59c.7-4.2 2.5-8 5.4-11.4A20 20 0 0137 40.2l8-.7h.4l.4-.1c5-.6 8.7-2.4 10.9-5.5l.9-1.6.5-1.1c2.2-4.6 5.6-7 10-7H84c4.4 0 7.8 2.4 10 7l.5 1.1 1 1.6c2.1 3 5.7 4.9 10.8 5.5h.9l8 .8c5.3.5 9.8 3 13.6 7.5a23.2 23.2 0 015.6 13.7zM83.6 32.8H68.5c-1 .2-1.9.8-2.5 2l-.4 1-.2.3c-.5 1-1 2-1.7 2.8-3.2 5.1-8.9 8.2-17 9v.1h-.5l-.6.1h.1l-7.9.8c-3 .3-5.6 1.8-7.8 4.4-1.8 2.2-3 4.6-3.4 7.2v.2a14.6 14.6 0 00-.2 2.2v28h8.1c4.4 0 7.4 2.8 9.3 8.3l5.6 16.6h53.2l5.6-16.6c1.9-5.5 5-8.3 9.3-8.3h8.2v-28-1l-.2-1.5v.1c-.5-2.6-1.6-5-3.4-7.2a12 12 0 00-7.9-4.4l-7.7-.8H106 105.3V48c-8-1-13.7-4-17-9a20.3 20.3 0 01-1.8-3.1l-.5-1.2v.2c-.5-1.2-1.4-2-2.4-2.1z"/><path fill-rule="evenodd" clip-rule="evenodd" fill="#294A7A" d="M96 61.5a27.4 27.4 0 018.3 20c0 8-2.8 14.6-8.3 20.2a27.5 27.5 0 01-20.2 8.4c-7.8 0-14.6-2.8-20.1-8.4a27.5 27.5 0 01-8.4-20.1c0-7.9 2.8-14.6 8.4-20.2a27.4 27.4 0 0120.1-8.3c7.9 0 14.6 2.8 20.2 8.4zm-6.2 6a19 19 0 00-14-5.7 19 19 0 00-14 5.8 19.1 19.1 0 00-5.8 14c0 5.5 2 10.1 5.8 14a19 19 0 0014 5.8c5.5 0 10.2-2 14-5.8 4-3.9 5.8-8.5 5.8-14s-1.9-10.1-5.8-14z"/><path fill-rule="evenodd" clip-rule="evenodd" fill="#606060" d="M84.7 76.2c0-3.4-1-6.4-2.9-9a15 15 0 019.6 14.5c0 4.2-1.5 7.9-4.5 11a15 15 0 01-11.1 4.5 15 15 0 01-12.7-6.5 15.8 15.8 0 0021.6-14.5z"/><path fill-rule="evenodd" clip-rule="evenodd" fill="#B21620" d="M107 65.9a5.7 5.7 0 01-1.7-4.2c0-1.6.5-3 1.7-4.2a5.7 5.7 0 014.2-1.7c1.6 0 3 .6 4.1 1.7a5.7 5.7 0 011.7 4.2c0 1.6-.5 3-1.7 4.2a5.7 5.7 0 01-4.1 1.7c-1.7 0-3-.6-4.2-1.7z"/></svg>